<?xml version="1.0" encoding="UTF-8"?><svg id="SDSC_Logo" xmlns="http://www.w3.org/2000/svg" viewBox="0 0 1861.89 511.68"><defs><style>.cls-1{fill:#90ca42;}.cls-2{fill:#5561a6;}.cls-3{fill:#26235c;}</style></defs><g id="SDSC_Logo_RGB"><path class="cls-3" d="m950.22,82.4h161.87c52.44,0,95.81,42.86,95.81,95.81v167.41c0,52.95-43.37,95.81-95.81,95.81h-161.87V82.4Zm164.89,293.98c15.13,0,27.23-12.61,27.23-27.73v-173.46c0-15.13-12.1-27.73-27.23-27.73h-99.34v228.93h99.34Z"/><path class="cls-3" d="m624.3,357.21l61.52-16.14,3.03,9.58c5.04,16.64,12.6,25.72,27.73,25.72h73.12c14.62,0,26.72-12.61,26.72-27.73v-17.65c0-11.09-7.06-21.68-17.14-24.2l-113.46-30.76c-35.8-9.58-60.51-45.89-60.51-85.22v-16.64c0-52.94,38.83-91.77,91.78-91.77h70.59c48.91,0,88.75,36.31,94.8,83.7l-61.01,16.64-3.03-9.58c-5.04-16.64-12.61-25.72-27.23-25.72h-73.12c-15.13,0-27.23,12.61-27.23,27.73v12.61c0,17.14,9.58,27.23,26.72,31.77l94.3,24.2c39.33,10.08,68.58,44.37,68.58,87.24v13.11c0,53.95-40.34,97.32-94.3,97.32h-66.06c-49.42,0-89.76-36.31-95.81-84.21Z"/><path class="cls-3" d="m1279.67,357.21l61.52-16.14,3.03,9.58c5.04,16.64,12.6,25.72,27.73,25.72h73.12c14.62,0,26.72-12.61,26.72-27.73v-17.65c0-11.09-7.06-21.68-17.14-24.2l-113.46-30.76c-35.8-9.58-60.51-45.89-60.51-85.22v-16.64c0-52.94,38.83-91.77,91.78-91.77h70.59c48.91,0,88.75,36.31,94.8,83.7l-61.01,16.64-3.03-9.58c-5.04-16.64-12.61-25.72-27.23-25.72h-73.12c-15.13,0-27.23,12.61-27.23,27.73v12.61c0,17.14,9.58,27.23,26.72,31.77l94.3,24.2c39.33,10.08,68.58,44.37,68.58,87.24v13.11c0,53.95-40.34,97.32-94.3,97.32h-66.06c-49.42,0-89.76-36.31-95.81-84.21Z"/><path class="cls-3" d="m1604.22,345.62v-167.41c0-52.95,42.86-95.81,95.81-95.81h66.56c48.91,0,88.75,36.31,95.3,83.7l-61.52,16.64-3.53-9.58c-6.05-16.64-12.1-25.72-27.23-25.72h-73.12c-15.13,0-27.23,12.61-27.23,27.73v173.46c0,15.13,12.1,27.73,27.23,27.73h72.11c15.13,0,23.7-8.57,28.24-25.72l2.52-9.58,61.52,16.14c-6.05,47.9-45.89,84.21-94.8,84.21h-66.06c-52.95,0-95.81-42.86-95.81-95.81Z"/><g id="Triangle"><path class="cls-3" d="m442.43,489.79c-25.19,13.85-54.44,21.89-86.49,21.89h-170.73c-93.53,0-151.99-101.25-105.23-182.24l.76-1.31,81.33-140.86c23.64-40.55,82.33-40.46,105.83.24l-81.18,140.62c-23.55,40.79,5.88,91.78,52.98,91.78h163.89c93.37,0,151.8-100.94,105.44-181.86l2.44,4.24c53.11,91.98,14.43,201.63-69.04,247.51Z"/><path class="cls-2" d="m349.09,328.13l-81.19-140.62c-23.5-40.71-82.18-40.79-105.83-.24l-81.33,140.86-.76,1.31c-46.76,80.99,11.7,182.24,105.23,182.24h-5.34C73.66,511.68-1.96,423.36.04,328.13c.59-28.58,8.19-57.78,24.03-85.41L109.7,94.41c46.76-80.99,163.67-80.99,210.43,0l.76,1.32,81.18,140.62c23.55,40.78-5.88,91.78-52.98,91.78Z"/><path class="cls-1" d="m509.03,238.04l-.22-.38-85.99-148.92c-15.95-27.24-37.31-48.21-61.58-62.89C279.76-23.5,165.46-2.18,112.36,89.79l-2.66,4.62c46.76-80.99,163.67-80.99,210.43,0l.76,1.32,81.18,140.62c23.55,40.78-5.88,91.78-52.98,91.78h-162.37c-23.55,40.79,5.88,91.78,52.98,91.78h163.89c93.37,0,151.8-100.94,105.44-181.86Z"/></g></g></svg>