<svg xmlns="http://www.w3.org/2000/svg" width="1068" height="288" class="svgbob">
  <style>.svgbob line, .svgbob path, .svgbob circle, .svgbob rect, .svgbob polygon {
  stroke: #0047AB;
  stroke-width: 2;
  stroke-opacity: 1;
  fill-opacity: 1;
  stroke-linecap: round;
  stroke-linejoin: miter;
}

.svgbob text {
  white-space: pre;
  fill: #0047AB;
  font-family: "Fira Mono";
  font-size: 20px;
}

.svgbob rect.backdrop {
  stroke: none;
  fill: white;
}

.svgbob .broken {
  stroke-dasharray: 8;
}

.svgbob .filled {
  fill: #0047AB;
}

.svgbob .bg_filled {
  fill: white;
  stroke-width: 1;
}

.svgbob .nofill {
  fill: white;
}

.svgbob .end_marked_arrow {
  marker-end: url(#arrow);
}

.svgbob .start_marked_arrow {
  marker-start: url(#arrow);
}

.svgbob .end_marked_diamond {
  marker-end: url(#diamond);
}

.svgbob .start_marked_diamond {
  marker-start: url(#diamond);
}

.svgbob .end_marked_circle {
  marker-end: url(#circle);
}

.svgbob .start_marked_circle {
  marker-start: url(#circle);
}

.svgbob .end_marked_open_circle {
  marker-end: url(#open_circle);
}

.svgbob .start_marked_open_circle {
  marker-start: url(#open_circle);
}

.svgbob .end_marked_big_open_circle {
  marker-end: url(#big_open_circle);
}

.svgbob .start_marked_big_open_circle {
  marker-start: url(#big_open_circle);
}

</style>
  <defs>
    <marker id="arrow" viewBox="-2 -2 8 8" refX="4" refY="2" markerWidth="7" markerHeight="7" orient="auto-start-reverse">
      <polygon points="0,0 0,4 4,2 0,0"></polygon>
    </marker>
    <marker id="diamond" viewBox="-2 -2 8 8" refX="4" refY="2" markerWidth="7" markerHeight="7" orient="auto-start-reverse">
      <polygon points="0,2 2,0 4,2 2,4 0,2"></polygon>
    </marker>
    <marker id="circle" viewBox="0 0 8 8" refX="4" refY="4" markerWidth="7" markerHeight="7" orient="auto-start-reverse">
      <circle cx="4" cy="4" r="2" class="filled"></circle>
    </marker>
    <marker id="open_circle" viewBox="0 0 8 8" refX="4" refY="4" markerWidth="7" markerHeight="7" orient="auto-start-reverse">
      <circle cx="4" cy="4" r="2" class="bg_filled"></circle>
    </marker>
    <marker id="big_open_circle" viewBox="0 0 8 8" refX="4" refY="4" markerWidth="7" markerHeight="7" orient="auto-start-reverse">
      <circle cx="4" cy="4" r="3" class="bg_filled"></circle>
    </marker>
  </defs>
  <rect class="backdrop" x="0" y="0" width="1068" height="288"></rect>
  <circle cx="774" cy="180" r="24" class="nofill"></circle>
  <line x1="780" y1="168" x2="768" y2="192" class="solid"></line>
  <text x="891" y="18" >*</text>
  <text x="51" y="42" >0</text>
  <text x="147" y="42" >3</text>
  <line x1="66" y1="60" x2="66" y2="60" class="solid end_marked_circle"></line>
  <line x1="63" y1="66" x2="42" y2="108" class="solid end_marked_circle"></line>
  <line x1="66" y1="66" x2="66" y2="156" class="solid end_marked_circle"></line>
  <line x1="72" y1="60" x2="162" y2="60" class="solid end_marked_circle"></line>
  <line x1="156" y1="60" x2="162" y2="60" class="solid"></line>
  <line x1="159" y1="66" x2="141" y2="102" class="solid"></line>
  <line x1="162" y1="66" x2="162" y2="150" class="solid"></line>
  <text x="27" y="90" >1</text>
  <text x="123" y="90" >2</text>
  <line x1="42" y1="108" x2="138" y2="108" class="solid end_marked_circle"></line>
  <line x1="132" y1="108" x2="138" y2="108" class="solid"></line>
  <line x1="42" y1="114" x2="42" y2="198" class="solid"></line>
  <line x1="138" y1="114" x2="138" y2="198" class="solid"></line>
  <text x="75" y="138" >4</text>
  <text x="171" y="138" >7</text>
  <line x1="66" y1="156" x2="162" y2="156" class="solid end_marked_circle"></line>
  <line x1="156" y1="156" x2="162" y2="156" class="solid"></line>
  <line x1="63" y1="162" x2="42" y2="204" class="solid end_marked_circle"></line>
  <line x1="159" y1="162" x2="141" y2="198" class="solid"></line>
  <line x1="42" y1="204" x2="138" y2="204" class="solid end_marked_circle"></line>
  <line x1="132" y1="204" x2="138" y2="204" class="solid"></line>
  <text x="27" y="234" >5</text>
  <text x="123" y="234" >6</text>
  <text x="471" y="42" >P</text>
  <line x1="501" y1="42" x2="498" y2="36" class="solid end_marked_circle"></line>
  <line x1="504" y1="48" x2="555" y2="150" class="solid"></line>
  <text x="459" y="114" >v0</text>
  <text x="627" y="114" >v3</text>
  <line x1="486" y1="132" x2="486" y2="132" class="solid end_marked_circle"></line>
  <line x1="483" y1="138" x2="438" y2="228" class="solid end_marked_circle"></line>
  <line x1="492" y1="132" x2="618" y2="132" class="solid end_marked_circle"></line>
  <line x1="612" y1="132" x2="618" y2="132" class="solid"></line>
  <line x1="621" y1="138" x2="663" y2="222" class="solid"></line>
  <polygon points="550.5,150 561,162 561,145.5" class="filled"></polygon>
  <text x="579" y="162" >X</text>
  <line x1="576" y1="168" x2="570" y2="180" class="solid end_marked_open_circle"></line>
  <line x1="438" y1="228" x2="666" y2="228" class="solid end_marked_circle"></line>
  <line x1="660" y1="228" x2="666" y2="228" class="solid"></line>
  <text x="675" y="42" >Eye</text>
  <path d="M 720,48 A 24,24 0,0,1 720,72" class="nofill"></path>
  <polygon points="853.5,42 843,30 843,46.5" class="filled"></polygon>
  <line x1="849" y1="42" x2="879" y2="102" class="solid"></line>
  <line x1="924" y1="24" x2="897" y2="78" class="solid"></line>
  <polygon points="901.5,78 891,90 891,73.5" class="filled"></polygon>
  <line x1="780" y1="108" x2="882" y2="108" class="solid end_marked_circle"></line>
  <line x1="876" y1="108" x2="984" y2="108" class="solid"></line>
  <text x="243" y="66" >+y</text>
  <polygon points="252,90 258,72 264,90" class="filled"></polygon>
  <polygon points="288,126 276,132 288,138" class="filled"></polygon>
  <path d="M 240,150 A 6,6 0,0,0 234,162" class="nofill"></path>
  <polygon points="238.5,166.5 235.5,160.5 232.5,163.5" class="filled"></polygon>
  <polygon points="324,150 336,156 324,162" class="filled"></polygon>
  <text x="267" y="186" >⤴</text>
  <polygon points="241.5,198 231,210 231,193.5" class="filled"></polygon>
  <text x="207" y="234" >+z</text>
  <text x="939" y="66" >Reflection</text>
  <text x="351" y="162" >+x</text>
  <polygon points="804,150 792,156 804,162" class="filled"></polygon>
  <line x1="804" y1="156" x2="900" y2="156" class="solid"></line>
  <text x="819" y="186" >Refraction</text>
  <line x1="762" y1="216" x2="762" y2="246" class="solid"></line>
  <polygon points="756,246 768,246 762,264" class="filled"></polygon>
  <line x1="999" y1="162" x2="1002" y2="156" class="solid end_marked_open_circle"></line>
  <line x1="1005" y1="162" x2="1035" y2="222" class="solid"></line>
  <line x1="996" y1="168" x2="966" y2="228" class="solid end_marked_open_circle"></line>
  <line x1="972" y1="228" x2="1038" y2="228" class="solid end_marked_open_circle"></line>
  <text x="399" y="234" >v1</text>
  <text x="687" y="234" >v2</text>
  <g>
    <line x1="732" y1="24" x2="714" y2="60" class="solid"></line>
    <line x1="714" y1="60" x2="732" y2="96" class="solid"></line>
  </g>
  <g>
    <line x1="258" y1="90" x2="258" y2="156" class="solid"></line>
    <line x1="258" y1="156" x2="324" y2="156" class="solid"></line>
    <line x1="258" y1="156" x2="237" y2="198" class="solid"></line>
  </g>
  <g>
    <path d="M 288,132 A 6,6 0,0,1 294,138" class="nofill"></path>
    <line x1="294" y1="138" x2="294" y2="144" class="solid"></line>
  </g>
</svg>