<?xml version="1.0" encoding="UTF-8" standalone="no"?>
<svg
   viewBox="0 0 65 65"
   version="1.1"
   id="svg1"
   width="65"
   height="65"
   xmlns="http://www.w3.org/2000/svg"
   xmlns:svg="http://www.w3.org/2000/svg">
  <defs
     id="defs1" />
  <path
     d="m 64.6,31.7 -2.8,-1.6 q 0,-0.2 0,-0.4 0,-0.2 0,-0.4 L 64,27.1 q 0.2,-0.2 0.3,-0.4 0.1,-0.2 0.1,-0.5 Q 64.2,26 64.1,25.8 64,25.6 63.8,25.5 l -3,-1.1 q -0.2,-0.2 -0.2,-0.4 0,-0.2 0,-0.4 L 62.4,21 q 0.2,-0.2 0.2,-0.4 0,-0.3 0,-0.5 -0.2,-0.2 -0.4,-0.4 -0.2,-0.2 -0.4,-0.2 l -3.2,-0.4 q 0,-0.2 -0.1,-0.4 -0.1,-0.2 -0.3,-0.4 l 1.4,-2.9 q 0,-0.3 0,-0.5 0,-0.199999 -0.2,-0.399999 0,-0.2 -0.2,-0.3 Q 59,14.1 58.8,14.1 l -3.4,0.100001 Q 55.4,14.1 55.2,13.9 55,13.700001 55,13.6 l 0.6,-3.1 q 0.2,-0.3 0.1,-0.5 -0.1,-0.1999995 -0.3,-0.3999995 -0.2,-0.2 -0.4,-0.2 -0.2,-0.1 -0.4,-0.1 l -3.2,0.8000005 q -0.2,-0.1 -0.3,-0.2000005 -0.1,-0.2 -0.3,-0.3 L 51,6.4 Q 51,6.1 50.9,5.9 50.8,5.7 50.6,5.6 50.4,5.4 50.1,5.4 q -0.3,0 -0.5,0.1 l -3,1.2 Q 46.4,6.6 46.3,6.6 46.2,6.5 46,6.4 L 45.6,3.2 Q 45.4,3 45.3,2.8 45.2,2.6 45,2.5 44.6,2.4 44.4,2.5 44.2,2.5 44,2.6 L 41.4,4.5 Q 41.2,4.4 41,4.4 40.8,4.3 40.6,4.3 l -1,-3 Q 39.4,1.1 39.2,0.9 39,0.7 38.8,0.7 38.6,0.6 38.4,0.7 38.2,0.8 38,1 l -2.2,2.3 q -0.2,0 -0.4,0 Q 35.2,3.2 35,3.2 L 33.4,0.5 Q 33.2,0.3 33,0.2 32.8,0 32.4,0 32.2,0 32,0.2 31.8,0.3 31.6,0.5 L 30,3.2 q -0.2,0 -0.4,0.1 -0.2,0 -0.4,0 L 27,1 q -0.2,-0.2 -0.4,-0.3 -0.2,-0.1 -0.4,0 -0.4,0 -0.5,0.2 -0.1,0.2 -0.3,0.4 l -1,3 q -0.2,0 -0.4,0.1 -0.2,0 -0.4,0.1 L 21,2.6 Q 20.8,2.4 20.5,2.5 20.2,2.5 20,2.5 19.8,2.6 19.7,2.8 19.6,3 19.4,3.2 L 19,6.4 q -0.2,0.1 -0.4,0.2 -0.2,0 -0.4,0.1 L 15.4,5.5 Q 15.2,5.4 14.9,5.4 14.6,5.4 14.4,5.6 14.2,5.7 14.1,5.9 14,6.1 14,6.4 l 0.2,3.2000005 q -0.2,0.1 -0.4,0.3 -0.2,0.1000005 -0.4,0.2000005 l -3,-0.8000005 q -0.2,0 -0.4999996,0.1 -0.3,0 -0.5,0.2 -0.2,0.2 -0.2,0.3999995 0,0.2 0,0.5 L 10,13.6 q -0.1999996,0.100001 -0.2999996,0.3 -0.1,0.2 -0.3,0.300001 L 6.2,14.1 q -0.2,0 -0.4,0.100001 -0.2,0.1 -0.4,0.3 -0.2,0.2 -0.2,0.399999 0,0.2 0.2,0.5 l 1.4,2.9 q -0.2,0.2 -0.3,0.4 -0.1,0.2 -0.1,0.4 l -3.2,0.4 q -0.2,0 -0.4,0.2 -0.2,0.2 -0.4,0.4 0,0.2 0,0.5 0,0.2 0.2,0.4 l 1.8,2.6 q 0,0.2 -0.1,0.4 -0.1,0.2 -0.1,0.4 l -3,1.1 Q 1,25.6 0.9,25.8 0.8,26 0.6,26.2 q 0,0.3 0.1,0.5 0.1,0.2 0.1,0.4 l 2.4,2.2 q 0,0.2 0,0.4 0,0.2 0,0.4 L 0.4,31.7 Q 0.2,31.8 0.1,32.1 0,32.3 0,32.5 q 0,0.3 0.1,0.5 0.1,0.2 0.3,0.3 l 2.8,1.8 q 0,0.2 0,0.4 0,0.2 0,0.3 L 0.8,38 q -0.2,0.2 -0.2,0.5 0,0.2 0,0.4 0.2,0.3 0.3,0.5 0.1,0.1 0.3,0.2 l 3,1.1 q 0,0.2 0.1,0.4 0.1,0.2 0.1,0.4 l -1.8,2.6 q -0.2,0.2 -0.2,0.4 0,0.2 0,0.4 0.2,0.3 0.4,0.5 0.2,0.1 0.4,0.1 l 3.2,0.6 q 0,0.1 0.1,0.3 0.1,0.2 0.3,0.4 l -1.4,2.9 q -0.2,0.2 -0.2,0.5 0,0.2 0.2,0.4 0.2,0.2 0.4,0.3 Q 6,51 6.2,51 l 3.2000004,-0.1 q 0.2,0.2 0.3,0.4 0.1,0.1 0.2999996,0.2 l -0.7999996,3.1 q 0,0.3 0,0.6 0,0.2 0.2,0.3 0.2,0.2 0.5,0.3 Q 10.2,55.9 10.4,55.8 l 3,-0.8 q 0.2,0.2 0.4,0.3 0.2,0.1 0.2,0.3 v 3.1 q 0,0.3 0.1,0.5 0.1,0.2 0.3,0.4 0.2,0.1 0.5,0.2 0.3,0 0.5,-0.1 l 2.8,-1.4 q 0.2,0.1 0.4,0.2 0.2,0.1 0.4,0.2 l 0.4,3.1 q 0.2,0.3 0.3,0.5 0.1,0.2 0.3,0.3 0.2,0 0.5,0 0.3,0 0.5,-0.2 l 2.6,-1.8 q 0.2,0.1 0.4,0.2 0.2,0 0.4,0 l 1,3 q 0.2,0.3 0.3,0.5 0.1,0.1 0.5,0.1 0.2,0.1 0.4,0 0.2,-0.1 0.4,-0.2 l 2.2,-2.4 q 0.2,0 0.4,0 0.2,0 0.4,0 l 1.6,2.8 q 0.2,0.2 0.4,0.3 0.2,0.1 0.4,0.1 0.4,0 0.6,-0.1 0.2,-0.1 0.4,-0.3 L 35,61.8 q 0.2,0 0.4,0 0.2,0 0.4,0 l 2.2,2.4 q 0.2,0.1 0.4,0.2 0.2,0.1 0.4,0 0.2,0 0.4,-0.1 0.2,-0.2 0.2,-0.5 l 1.2,-3 q 0.2,-0.1 0.4,-0.1 0.2,0 0.4,-0.1 l 2.6,1.8 q 0.2,0.2 0.4,0.2 0.2,0 0.6,0 0.2,-0.1 0.3,-0.3 0.1,-0.2 0.3,-0.5 L 46,58.7 q 0.2,-0.1 0.4,-0.2 0.2,-0.1 0.2,-0.2 l 3,1.4 q 0.2,0.1 0.5,0.1 0.3,-0.1 0.5,-0.2 0.2,-0.2 0.3,-0.4 Q 51,59 51,58.7 l -0.2,-3.1 q 0.2,-0.2 0.3,-0.3 0.1,-0.1 0.3,-0.3 l 3.2,0.8 q 0.2,0.1 0.4,0 0.2,-0.1 0.4,-0.3 0.2,-0.1 0.3,-0.3 0.1,-0.3 -0.1,-0.6 L 55,51.5 q 0,-0.1 0.2,-0.2 0.2,-0.2 0.2,-0.4 l 3.4,0.1 q 0.2,0 0.4,-0.1 0.2,-0.1 0.2,-0.3 0.2,-0.2 0.2,-0.4 0,-0.3 0,-0.5 l -1.4,-2.9 q 0.2,-0.2 0.3,-0.4 0.1,-0.2 0.1,-0.3 l 3.2,-0.6 q 0.2,0 0.4,-0.1 0.2,-0.2 0.4,-0.5 0,-0.2 0,-0.4 0,-0.3 -0.2,-0.4 l -1.8,-2.6 q 0,-0.2 0,-0.4 0,-0.2 0.2,-0.4 l 3,-1.1 q 0.2,-0.1 0.3,-0.2 0.1,-0.2 0.3,-0.5 0,-0.2 -0.1,-0.4 Q 64.2,38.2 64,38 l -2.2,-2.2 q 0,-0.2 0,-0.3 0,-0.2 0,-0.4 l 2.8,-1.8 Q 64.8,33.2 64.9,33 65,32.8 65,32.5 65,32.3 64.9,32.1 64.8,31.8 64.6,31.7 Z M 46.4,54.4 q -0.8,-0.2 -1.3,-0.9 -0.5,-0.7 -0.3,-1.4 0.2,-0.8 0.9,-1.2 0.7,-0.5 1.3,-0.3 0.8,0.2 1.3,0.9 0.5,0.6 0.3,1.4 -0.2,0.8 -0.9,1.2 -0.7,0.4 -1.3,0.3 z m -1,-6.2 Q 44.6,48 44,48.4 q -0.6,0.3 -0.8,1 L 42.4,54 q -2.2,1 -4.8,1.6 -2.6,0.5 -5.2,0.5 -2.6,0 -5.1,-0.5 -2.5,-0.6 -4.9,-1.7 l -0.8,-4.6 q -0.2,-0.7 -0.8,-1 -0.6,-0.4 -1.4,-0.2 l -4,0.7 q -0.6,-0.6 -1.1,-1.1 -0.5,-0.6 -0.9,-1.3 h 19.4 q 0.2,0 0.3,0 0.1,0 0.1,-0.2 v -6.8 q 0,-0.2 -0.1,-0.2 Q 33,39.1 32.8,39.1 H 27 v -4.3 h 6.2 q 0.6,0 1.9,0.5 1.3,0.4 1.9,2.7 0.2,0.7 0.6,2.5 0.4,1.8 0.6,2.6 0.2,0.9 1.2,2.1 1,1.2 2.2,1.2 h 9.6 q 0.2,0 0.3,0 0.1,0 0.1,0 -0.6,0.7 -1.1,1.3 -0.5,0.6 -1.1,1.3 z m -27,6.1 Q 17.6,54.4 17,54 16.4,53.6 16.2,52.8 16,52 16.5,51.4 q 0.5,-0.7 1.1,-0.9 0.8,-0.2 1.5,0.3 0.7,0.4 0.9,1.2 0.2,0.8 -0.3,1.5 -0.5,0.6 -1.3,0.8 z M 11.2,24.4 q 0.2,0.7 -0.1,1.5 -0.3,0.8 -0.9,1.1 -0.7999996,0.3 -1.4999996,0 -0.7,-0.3 -1.1,-1 -0.4000004,-0.8 -0.1,-1.5 0.3,-0.8 1.1,-1.1 0.8,-0.3 1.4999996,0 0.7,0.2 1.1,1 z M 9.0000004,29.8 13,27.9 q 0.8,-0.3 1,-0.9 0.2,-0.7 -0.2,-1.4 l -0.6,-2 h 3.2 V 38.9 H 9.6000004 q -0.4,-1.6 -0.6,-3.2 -0.2,-1.7 -0.2,-3.4 0,-0.7 0,-1.3 0,-0.6 0.2,-1.2 z M 27,28.3 v -4.5 h 8 q 0.4,0 1.7,0.5 1.3,0.5 1.3,1.9 0,1.2 -1.1,1.7 -1.1,0.4 -2.5,0.4 z m 29.2,4 q 0,0.5 0,1 0,0.4 0,0.8 h -2.4 q -0.2,0 -0.3,0.1 -0.1,0.1 -0.1,0.3 v 1.2 q 0,2 -0.9,2.6 -0.9,0.6 -1.8,0.7 -0.9,0.1 -1.8,-0.3 -0.9,-0.4 -1.1,-1 -0.6,-3.1 -1.5,-4.2 -0.9,-1.2 -2.3,-2.3 1.8,-1.1 3.3,-2.8 1.5,-1.7 1.5,-4 0,-2.4 -1.3,-3.9 Q 46.2,19 45.2,18.2 43.4,17.1 41.9,16.8 40.4,16.5 40,16.5 H 14.8 Q 17.2,13.6 20.7,11.7 24.2,9.7000005 28,9.0000005 L 31,12.1 q 0.6,0.5 1.3,0.6 0.7,0 1.3,-0.6 L 36.8,9.0000005 Q 42.2,10 46.4,13.1 q 4.2,3 6.8,7.4 l -2.4,5.2 q -0.4,0.7 -0.1,1.4 0.3,0.6 1.1,0.9 l 4.4,2 q 0,0.6 0,1.2 0,0.5 0,1.1 z M 31,6.4 q 0.6,-0.6 1.4,-0.6 0.8,0 1.4,0.6 0.6,0.6000005 0.5,1.4000005 -0.1,0.8 -0.5,1.3 -0.6,0.6 -1.4,0.6 -0.8,0 -1.4,-0.6 -0.6,-0.6 -0.6,-1.4 Q 30.4,6.8 31,6.4 Z m 22.6,18.1 q 0.4,-0.8 1.1,-1 0.7,-0.3 1.5,0 0.8,0.3 1,1.1 0.2,0.7 0,1.5 -0.4,0.7 -1.1,1 -0.7,0.3 -1.4,0 -0.7,-0.3 -1,-1.1 -0.3,-0.8 -0.1,-1.5 z"
     id="text1"
     style="font-size:100px;fill:#ff3800"
     aria-label="" />
</svg>
