<?xml version="1.0" encoding="UTF-8" standalone="no"?>
<svg
   width="190"
   height="56"
   viewBox="0 0 190 56"
   fill="none"
   version="1.1"
   id="svg12"
   sodipodi:docname="company-logo.svg"
   inkscape:version="1.3 (1:1.3+202307231459+0e150ed6c4)"
   xmlns:inkscape="http://www.inkscape.org/namespaces/inkscape"
   xmlns:sodipodi="http://sodipodi.sourceforge.net/DTD/sodipodi-0.dtd"
   xmlns="http://www.w3.org/2000/svg"
   xmlns:svg="http://www.w3.org/2000/svg">
  <defs
     id="defs12" />
  <sodipodi:namedview
     id="namedview12"
     pagecolor="#ffffff"
     bordercolor="#666666"
     borderopacity="1.0"
     inkscape:showpageshadow="2"
     inkscape:pageopacity="0.0"
     inkscape:pagecheckerboard="0"
     inkscape:deskcolor="#d1d1d1"
     inkscape:zoom="7.1421053"
     inkscape:cx="89.609432"
     inkscape:cy="23.592483"
     inkscape:window-width="2334"
     inkscape:window-height="1139"
     inkscape:window-x="26"
     inkscape:window-y="23"
     inkscape:window-maximized="0"
     inkscape:current-layer="svg12" />
  <path
     fill-rule="evenodd"
     clip-rule="evenodd"
     d="M59 42.5845L59 14.1384L12 3.73655L12 52.3153L59 42.5845ZM60.4055 45.3572C61.3341 45.1649 62 44.347 62 43.3987L62 13.3355C62 12.3975 61.3481 11.5855 60.4322 11.3828L11.4322 0.538289C10.1836 0.261959 9 1.21225 9 2.49104L8.99999 53.5435C8.99999 54.8111 10.1642 55.759 11.4055 55.502L60.4055 45.3572Z"
     fill="#D53F8C"
     id="path1"
     style="fill:#3f96d5;fill-opacity:1" />
  <path
     d="M0 12.6013C0 11.653 0.665933 10.8351 1.59452 10.6428L50.5945 0.498019C51.8358 0.241027 53 1.18887 53 2.45649V53.509C53 54.7878 51.8164 55.738 50.5678 55.4617L1.56783 44.6173C0.651943 44.4146 0 43.6025 0 42.6645V12.6013Z"
     fill="#F2E142"
     id="path2" />
  <path
     d="M12 3.02932L12 53.0252L9.00001 53.0252L9.00001 3.02932L12 3.02932Z"
     fill="#D53F8C"
     id="path3" />
  <path
     d="M77.2954 37.9026H80.2802V25.609C80.2802 22.9783 82.3544 21.0558 85.1875 21.0558C85.9843 21.0558 86.8064 21.2076 87.0087 21.2582V18.2227C86.6672 18.1974 85.8831 18.1721 85.4404 18.1721C83.1133 18.1721 81.0897 19.4875 80.3814 21.4099H80.179V18.4757H77.2954V37.9026Z"
     fill="white"
     id="path4" />
  <path
     d="M96.3883 38.3074C100.334 38.3074 103.218 36.3343 104.129 33.4L101.245 32.5906C100.486 34.6142 98.7281 35.626 96.3883 35.626C92.8849 35.626 90.4693 33.3621 90.3301 29.201H104.432V27.9362C104.432 20.7017 100.132 18.2227 96.0848 18.2227C90.8234 18.2227 87.3327 22.3712 87.3327 28.3409C87.3327 34.3107 90.7728 38.3074 96.3883 38.3074ZM90.3301 26.6208C90.5325 23.598 92.6699 20.904 96.0848 20.904C99.3225 20.904 101.397 23.3324 101.397 26.6208H90.3301Z"
     fill="white"
     id="path5" />
  <path
     d="M123.146 18.4757H119.908L114.545 33.9565H114.343L108.98 18.4757H105.743L112.926 37.9026H115.962L123.146 18.4757Z"
     fill="white"
     id="path6" />
  <path
     d="M132.822 38.3074C136.768 38.3074 139.652 36.3343 140.563 33.4L137.679 32.5906C136.92 34.6142 135.162 35.626 132.822 35.626C129.319 35.626 126.903 33.3621 126.764 29.201H140.866V27.9362C140.866 20.7017 136.566 18.2227 132.519 18.2227C127.257 18.2227 123.767 22.3712 123.767 28.3409C123.767 34.3107 127.207 38.3074 132.822 38.3074ZM126.764 26.6208C126.967 23.598 129.104 20.904 132.519 20.904C135.757 20.904 137.831 23.3324 137.831 26.6208H126.764Z"
     fill="white"
     id="path7" />
  <path
     d="M149.411 38.3579C152.801 38.3579 154.571 36.5367 155.178 35.2719H155.33V37.9026H158.315V25.1031C158.315 18.931 153.61 18.2227 151.131 18.2227C148.197 18.2227 144.858 19.2345 143.34 22.7759L146.173 23.7877C146.831 22.3712 148.387 20.8534 151.232 20.8534C153.977 20.8534 155.33 22.3079 155.33 24.7995V24.9007C155.33 26.3426 153.863 26.2161 150.322 26.6714C146.717 27.1394 142.784 27.9362 142.784 32.3882C142.784 36.1825 145.718 38.3579 149.411 38.3579ZM149.866 35.6766C147.489 35.6766 145.769 34.6142 145.769 32.54C145.769 30.2634 147.843 29.5551 150.17 29.2516C151.435 29.0998 154.824 28.7456 155.33 28.1385V30.8705C155.33 33.2988 153.408 35.6766 149.866 35.6766Z"
     fill="white"
     id="path8" />
  <path
     d="M165.035 12H162.051V37.9026H165.035V12Z"
     fill="white"
     id="path9" />
  <path
     d="M175.419 24V32.5833C175.419 33.3958 175.095 33.8542 174.368 33.8542H174.146V35H174.388C175.883 35 176.611 34.0625 176.611 32.5833V24H175.419ZM176.004 22.6667C176.469 22.6667 176.853 22.2917 176.853 21.8333C176.853 21.375 176.469 21 176.004 21C175.54 21 175.156 21.375 175.156 21.8333C175.156 22.2917 175.54 22.6667 176.004 22.6667Z"
     fill="white"
     id="path10" />
  <path
     d="M184.004 25.7917C183.631 24.6562 182.792 23.8958 181.257 23.8958C179.62 23.8958 178.408 24.8542 178.408 26.2083C178.408 27.3125 179.045 28.0521 180.469 28.3958L181.762 28.7083C182.545 28.8958 182.913 29.2812 182.913 29.8333C182.913 30.5208 182.206 31.0833 181.095 31.0833C180.12 31.0833 179.509 30.651 179.297 29.7917L178.166 30.0833C178.444 31.4427 179.529 32.1667 181.115 32.1667C182.918 32.1667 184.146 31.151 184.146 29.7708C184.146 28.6562 183.469 27.9531 182.085 27.6042L180.934 27.3125C180.014 27.0781 179.6 26.7604 179.6 26.1458C179.6 25.4583 180.307 24.9583 181.257 24.9583C182.297 24.9583 182.726 25.5521 182.934 26.1042L184.004 25.7917Z"
     fill="white"
     id="path11" />
  <path
     fill-rule="evenodd"
     clip-rule="evenodd"
     d="M187.146 19H171.146C170.594 19 170.146 19.4477 170.146 20V36C170.146 36.5523 170.594 37 171.146 37H187.146C187.698 37 188.146 36.5523 188.146 36V20C188.146 19.4477 187.698 19 187.146 19ZM171.146 18C170.041 18 169.146 18.8954 169.146 20V36C169.146 37.1046 170.041 38 171.146 38H187.146C188.25 38 189.146 37.1046 189.146 36V20C189.146 18.8954 188.25 18 187.146 18H171.146Z"
     fill="white"
     id="path12" />
  <path
     style="font-size:29.3333px;line-height:1.25;font-family:Ubuntu;-inkscape-font-specification:Ubuntu;letter-spacing:-1.85px;fill:#3f96d5;stroke:#4d4d4d;stroke-opacity:1;fill-opacity:1;stroke-width:0.5;stroke-dasharray:none"
     d="m 79.712046,37.336617 q -2.141331,0 -3.901329,-0.703999 -1.759998,-0.703999 -3.02133,-2.053331 -1.261331,-1.349332 -1.965331,-3.314663 -0.674666,-1.994664 -0.674666,-4.546661 0,-2.551997 0.762666,-4.517328 0.791999,-1.994665 2.111998,-3.343996 1.319998,-1.349332 3.079996,-2.053331 1.759998,-0.704 3.754663,-0.704 1.261332,0 2.258664,0.176 1.026665,0.176 1.759998,0.410666 0.762665,0.234667 1.231998,0.469333 0.469333,0.234667 0.645333,0.352 l -0.821333,2.346664 q -0.263999,-0.176 -0.762665,-0.381333 -0.498666,-0.205333 -1.143999,-0.410666 -0.615999,-0.205333 -1.378665,-0.322667 -0.733333,-0.146666 -1.495998,-0.146666 -1.613332,0 -2.903997,0.557333 -1.290665,0.557332 -2.199997,1.613331 -0.909333,1.055999 -1.407999,2.58133 -0.469333,1.495999 -0.469333,3.37333 0,1.818664 0.410667,3.314663 0.439999,1.495998 1.290665,2.58133 0.850665,1.055999 2.111997,1.642665 1.290665,0.586666 2.991997,0.586666 1.965331,0 3.255996,-0.410666 1.290665,-0.410666 1.935998,-0.733333 l 0.733332,2.346664 q -0.205333,0.146667 -0.733332,0.381333 -0.528,0.205333 -1.319999,0.410666 -0.791999,0.205333 -1.847997,0.352 -1.055999,0.146666 -2.287998,0.146666 z M 100.15528,29.26996 q 0,1.818665 -0.527996,3.28533 -0.527999,1.466665 -1.495998,2.522663 -0.938666,1.055999 -2.258664,1.642665 -1.319999,0.557333 -2.874664,0.557333 -1.554664,0 -2.874663,-0.557333 -1.319998,-0.586666 -2.287997,-1.642665 -0.938666,-1.055998 -1.466665,-2.522663 -0.528,-1.466665 -0.528,-3.28533 0,-1.789331 0.528,-3.255996 0.527999,-1.495999 1.466665,-2.551997 0.967999,-1.055999 2.287997,-1.613332 1.319999,-0.586666 2.874663,-0.586666 1.554665,0 2.874664,0.586666 1.319998,0.557333 2.258664,1.613332 0.967999,1.055998 1.495998,2.551997 0.527996,1.466665 0.527996,3.255996 z m -2.845327,0 q 0,-2.58133 -1.173332,-4.077329 -1.143998,-1.525331 -3.138663,-1.525331 -1.994664,0 -3.167996,1.525331 -1.143999,1.495999 -1.143999,4.077329 0,2.58133 1.143999,4.106662 1.173332,1.495998 3.167996,1.495998 1.994665,0 3.138663,-1.495998 1.173332,-1.525332 1.173332,-4.106662 z m 4.837937,-7.186658 q 0.93867,-0.234667 2.464,-0.498667 1.55467,-0.263999 3.57866,-0.263999 1.46667,0 2.464,0.410666 0.99733,0.381333 1.672,1.143999 0.20533,-0.146667 0.64533,-0.410667 0.44,-0.263999 1.08533,-0.498666 0.64534,-0.263999 1.43733,-0.439999 0.792,-0.205333 1.70134,-0.205333 1.75999,0 2.87466,0.527999 1.11466,0.498666 1.73066,1.437332 0.64534,0.938665 0.85067,2.229331 0.23467,1.290665 0.23467,2.815996 v 8.565324 h -2.728 V 28.91796 q 0,-1.349331 -0.14667,-2.31733 -0.11733,-0.967999 -0.49866,-1.613332 -0.352,-0.645332 -0.99734,-0.938665 -0.61599,-0.322667 -1.61333,-0.322667 -1.37866,0 -2.28799,0.381333 -0.88,0.352 -1.20267,0.645333 0.23467,0.762666 0.352,1.671998 0.11733,0.909332 0.11733,1.906664 v 8.565324 h -2.72799 V 28.91796 q 0,-1.349331 -0.14667,-2.31733 -0.14667,-0.967999 -0.528,-1.613332 -0.352,-0.645332 -0.99733,-0.938665 -0.616,-0.322667 -1.584,-0.322667 -0.41067,0 -0.88,0.02933 -0.46933,0.02933 -0.90933,0.088 -0.41067,0.02933 -0.76267,0.088 -0.352,0.05867 -0.46933,0.088 v 12.877319 h -2.728 z m 33.99524,7.215991 q 0,-2.66933 -1.32,-4.106662 -1.32,-1.437331 -3.51999,-1.437331 -1.232,0 -1.936,0.088 -0.67467,0.088 -1.08533,0.205333 v 9.621322 q 0.49866,0.410666 1.43733,0.791999 0.93866,0.381333 2.05333,0.381333 1.17333,0 1.99466,-0.410666 0.85067,-0.44 1.37867,-1.173332 0.528,-0.762666 0.76266,-1.759998 0.23467,-1.026666 0.23467,-2.199998 z m 2.84533,0 q 0,1.730665 -0.46933,3.19733 -0.44,1.466665 -1.32,2.522664 -0.88,1.055998 -2.17066,1.642664 -1.26134,0.586666 -2.904,0.586666 -1.32,0 -2.34667,-0.351999 -0.99733,-0.352 -1.49599,-0.674666 v 6.101326 h -2.728 V 22.112635 q 0.968,-0.234667 2.40533,-0.498666 1.46667,-0.293333 3.37333,-0.293333 1.76,0 3.168,0.557332 1.40799,0.557333 2.40533,1.583999 0.99733,1.026665 1.52533,2.522663 0.55733,1.466665 0.55733,3.314663 z m 7.15529,5.631994 q 0.968,0 1.70133,-0.02933 0.76266,-0.05867 1.26133,-0.176 v -4.546662 q -0.29333,-0.146666 -0.968,-0.234666 -0.64533,-0.117333 -1.584,-0.117333 -0.616,0 -1.32,0.088 -0.67466,0.088 -1.26133,0.381332 -0.55733,0.264 -0.93866,0.762666 -0.38134,0.469333 -0.38134,1.261332 0,1.466665 0.93867,2.053331 0.93867,0.557333 2.552,0.557333 z m -0.23467,-13.669318 q 1.64267,0 2.75733,0.44 1.144,0.410666 1.81867,1.202665 0.70399,0.762666 0.99733,1.847998 0.29333,1.055999 0.29333,2.346664 v 9.533322 q -0.352,0.05867 -0.99733,0.176 -0.616,0.088 -1.408,0.176 -0.792,0.088 -1.73066,0.146666 -0.90934,0.088 -1.81867,0.088 -1.29066,0 -2.376,-0.264 -1.08533,-0.263999 -1.87733,-0.821332 -0.792,-0.586666 -1.232,-1.525331 -0.44,-0.938666 -0.44,-2.258665 0,-1.261331 0.49867,-2.170664 0.528,-0.909332 1.408,-1.466665 0.88,-0.557332 2.05333,-0.821332 1.17333,-0.264 2.464,-0.264 0.41066,0 0.85066,0.05867 0.44,0.02933 0.82133,0.117333 0.41067,0.05867 0.704,0.117333 0.29334,0.05867 0.41067,0.088 v -0.762666 q 0,-0.674666 -0.14667,-1.319998 -0.14666,-0.674666 -0.528,-1.173332 -0.38133,-0.528 -1.05599,-0.821333 -0.64534,-0.322666 -1.70134,-0.322666 -1.34933,0 -2.37599,0.205333 -0.99734,0.176 -1.496,0.381333 l -0.32267,-2.258664 q 0.528,-0.234666 1.76,-0.439999 1.232,-0.234667 2.66933,-0.234667 z m 8.53397,0.821333 q 0.93867,-0.234667 2.49333,-0.498667 1.55467,-0.263999 3.57867,-0.263999 1.81866,0 3.02133,0.527999 1.20266,0.498666 1.90666,1.437332 0.73333,0.909332 1.02667,2.199997 0.29333,1.290666 0.29333,2.84533 v 8.565324 h -2.728 V 28.91796 q 0,-1.407998 -0.20533,-2.40533 -0.176,-0.997332 -0.616,-1.613332 -0.44,-0.615999 -1.17333,-0.879999 -0.73333,-0.293333 -1.81867,-0.293333 -0.44,0 -0.90933,0.02933 -0.46933,0.02933 -0.90933,0.088 -0.41067,0.02933 -0.76267,0.088 -0.32266,0.05867 -0.46933,0.088 v 12.877319 h -2.728 z m 12.66992,17.658646 q 0.32267,0.146666 0.82134,0.264 0.528,0.146666 1.02666,0.146666 1.61333,0 2.52267,-0.733332 0.90933,-0.704 1.64266,-2.317331 -1.848,-3.519996 -3.46133,-7.450658 -1.584,-3.959996 -2.64,-8.007991 h 2.93333 q 0.32267,1.319999 0.76267,2.84533 0.46933,1.525332 1.02667,3.138663 0.55733,1.613332 1.20266,3.226663 0.64533,1.613332 1.34933,3.10933 1.11467,-3.079997 1.936,-6.101326 0.82133,-3.02133 1.55466,-6.21866 h 2.816 q -1.056,4.311995 -2.34666,8.301324 -1.29067,3.959995 -2.78667,7.421325 -0.58666,1.319998 -1.23199,2.258664 -0.616,0.967999 -1.37867,1.583998 -0.76267,0.615999 -1.73066,0.909332 -0.93867,0.293333 -2.14133,0.293333 -0.32267,0 -0.67467,-0.05867 -0.352,-0.02933 -0.704,-0.117334 -0.32267,-0.05867 -0.616,-0.146666 -0.264,-0.088 -0.38133,-0.146667 z"
     id="text12"
     aria-label="Company" />
</svg>
