<svg xmlns="http://www.w3.org/2000/svg" width="544" height="192" class="svgbob"><style>.svgbob line, .svgbob path, .svgbob circle, .svgbob rect, .svgbob polygon {
    stroke: black;
    stroke-width: 2;
    stroke-opacity: 1;
    fill-opacity: 1;
    stroke-linecap: round;
    stroke-linejoin: miter;
}
.svgbob text {
    white-space: pre;
    fill: black;
    font-family: Iosevka Fixed, monospace;
    font-size: 14px;
}
.svgbob rect.backdrop {
    stroke: none;
    fill: white;
}
.svgbob .broken {
    stroke-dasharray: 8;
}
.svgbob .filled {
    fill: black;
}
.svgbob .bg_filled {
    fill: white;
    stroke-width: 1;
}
.svgbob .nofill {
    fill: white;
}
.svgbob .end_marked_arrow {
    marker-end: url(#arrow);
}
.svgbob .start_marked_arrow {
    marker-start: url(#arrow);
}
.svgbob .end_marked_diamond {
    marker-end: url(#diamond);
}
.svgbob .start_marked_diamond {
    marker-start: url(#diamond);
}
.svgbob .end_marked_circle {
    marker-end: url(#circle);
}
.svgbob .start_marked_circle {
    marker-start: url(#circle);
}
.svgbob .end_marked_open_circle {
    marker-end: url(#open_circle);
}
.svgbob .start_marked_open_circle {
    marker-start: url(#open_circle);
}
.svgbob .end_marked_big_open_circle {
    marker-end: url(#big_open_circle);
}
.svgbob .start_marked_big_open_circle {
    marker-start: url(#big_open_circle);
}<!--separator--></style><defs><marker id="arrow" viewBox="-2 -2 8 8" refX="4" refY="2" markerWidth="7" markerHeight="7" orient="auto-start-reverse"><polygon points="0,0 0,4 4,2 0,0"></polygon></marker><marker id="diamond" viewBox="-2 -2 8 8" refX="4" refY="2" markerWidth="7" markerHeight="7" orient="auto-start-reverse"><polygon points="0,2 2,0 4,2 2,4 0,2"></polygon></marker><marker id="circle" viewBox="0 0 8 8" refX="4" refY="4" markerWidth="7" markerHeight="7" orient="auto-start-reverse"><circle cx="4" cy="4" r="2" class="filled"></circle></marker><marker id="open_circle" viewBox="0 0 8 8" refX="4" refY="4" markerWidth="7" markerHeight="7" orient="auto-start-reverse"><circle cx="4" cy="4" r="2" class="bg_filled"></circle></marker><marker id="big_open_circle" viewBox="0 0 8 8" refX="4" refY="4" markerWidth="7" markerHeight="7" orient="auto-start-reverse"><circle cx="4" cy="4" r="3" class="bg_filled"></circle></marker></defs><rect class="backdrop" x="0" y="0" width="544" height="192"></rect><text x="10" y="12" >Stack</text><line x1="24" y1="24" x2="32" y2="24" class="solid"></line><line x1="40" y1="24" x2="48" y2="24" class="solid"></line><line x1="56" y1="24" x2="64" y2="24" class="solid"></line><line x1="72" y1="24" x2="80" y2="24" class="solid"></line><line x1="88" y1="24" x2="96" y2="24" class="solid"></line><line x1="104" y1="24" x2="112" y2="24" class="solid"></line><line x1="120" y1="24" x2="128" y2="24" class="solid"></line><line x1="136" y1="24" x2="144" y2="24" class="solid"></line><line x1="152" y1="24" x2="160" y2="24" class="solid"></line><line x1="168" y1="24" x2="176" y2="24" class="solid"></line><line x1="184" y1="24" x2="192" y2="24" class="solid"></line><line x1="200" y1="24" x2="208" y2="24" class="solid"></line><text x="282" y="28" >Heap</text><line x1="296" y1="40" x2="304" y2="40" class="solid"></line><line x1="312" y1="40" x2="320" y2="40" class="solid"></line><text x="42" y="60" >s1</text><text x="50" y="92" >capacity</text><text x="178" y="92" >5</text><text x="50" y="108" >ptr</text><line x1="192" y1="104" x2="180" y2="104" class="solid end_marked_open_circle"></line><line x1="192" y1="104" x2="296" y2="104" class="solid"></line><polygon points="296,100 304,104 296,108" class="filled"></polygon><text x="322" y="108" >h</text><text x="362" y="108" >e</text><text x="402" y="108" >l</text><text x="442" y="108" >l</text><text x="482" y="108" >o</text><text x="50" y="124" >len</text><text x="178" y="124" >5</text><line x1="328" y1="40" x2="336" y2="40" class="solid"></line><line x1="344" y1="40" x2="352" y2="40" class="solid"></line><line x1="360" y1="40" x2="368" y2="40" class="solid"></line><line x1="376" y1="40" x2="384" y2="40" class="solid"></line><line x1="392" y1="40" x2="400" y2="40" class="solid"></line><line x1="408" y1="40" x2="416" y2="40" class="solid"></line><line x1="424" y1="40" x2="432" y2="40" class="solid"></line><line x1="440" y1="40" x2="448" y2="40" class="solid"></line><line x1="456" y1="40" x2="464" y2="40" class="solid"></line><line x1="472" y1="40" x2="480" y2="40" class="solid"></line><line x1="488" y1="40" x2="496" y2="40" class="solid"></line><line x1="504" y1="40" x2="512" y2="40" class="solid"></line><line x1="24" y1="168" x2="32" y2="168" class="solid"></line><line x1="40" y1="168" x2="48" y2="168" class="solid"></line><line x1="56" y1="168" x2="64" y2="168" class="solid"></line><line x1="72" y1="168" x2="80" y2="168" class="solid"></line><line x1="88" y1="168" x2="96" y2="168" class="solid"></line><line x1="104" y1="168" x2="112" y2="168" class="solid"></line><line x1="120" y1="168" x2="128" y2="168" class="solid"></line><line x1="136" y1="168" x2="144" y2="168" class="solid"></line><line x1="152" y1="168" x2="160" y2="168" class="solid"></line><line x1="168" y1="168" x2="176" y2="168" class="solid"></line><line x1="184" y1="168" x2="192" y2="168" class="solid"></line><line x1="200" y1="168" x2="208" y2="168" class="solid"></line><line x1="296" y1="168" x2="304" y2="168" class="solid"></line><line x1="312" y1="168" x2="320" y2="168" class="solid"></line><line x1="328" y1="168" x2="336" y2="168" class="solid"></line><line x1="344" y1="168" x2="352" y2="168" class="solid"></line><line x1="360" y1="168" x2="368" y2="168" class="solid"></line><line x1="376" y1="168" x2="384" y2="168" class="solid"></line><line x1="392" y1="168" x2="400" y2="168" class="solid"></line><line x1="408" y1="168" x2="416" y2="168" class="solid"></line><line x1="424" y1="168" x2="432" y2="168" class="solid"></line><line x1="440" y1="168" x2="448" y2="168" class="solid"></line><line x1="456" y1="168" x2="464" y2="168" class="solid"></line><line x1="472" y1="168" x2="480" y2="168" class="solid"></line><line x1="488" y1="168" x2="496" y2="168" class="solid"></line><line x1="504" y1="168" x2="512" y2="168" class="solid"></line><g><path d="M 8,24 A 4,4 0,0,0 4,28" class="nofill"></path><line x1="4" y1="28" x2="4" y2="164" class="broken"></line><line x1="8" y1="24" x2="16" y2="24" class="solid"></line><path d="M 4,164 A 4,4 0,0,0 8,168" class="nofill"></path><line x1="8" y1="168" x2="16" y2="168" class="solid"></line></g><g><line x1="216" y1="24" x2="224" y2="24" class="solid"></line><path d="M 224,24 A 4,4 0,0,1 228,28" class="nofill"></path><line x1="228" y1="28" x2="228" y2="164" class="broken"></line><line x1="216" y1="168" x2="224" y2="168" class="solid"></line><path d="M 228,164 A 4,4 0,0,1 224,168" class="nofill"></path></g><g><path d="M 280,40 A 4,4 0,0,0 276,44" class="nofill"></path><line x1="276" y1="44" x2="276" y2="164" class="broken"></line><line x1="280" y1="40" x2="288" y2="40" class="solid"></line><path d="M 276,164 A 4,4 0,0,0 280,168" class="nofill"></path><line x1="280" y1="168" x2="288" y2="168" class="solid"></line></g><g><line x1="36" y1="72" x2="196" y2="72" class="solid"></line><line x1="36" y1="72" x2="36" y2="136" class="solid"></line><line x1="132" y1="72" x2="132" y2="136" class="solid"></line><line x1="196" y1="72" x2="196" y2="136" class="solid"></line><line x1="36" y1="136" x2="196" y2="136" class="solid"></line></g><g><line x1="308" y1="88" x2="508" y2="88" class="solid"></line><line x1="308" y1="88" x2="308" y2="120" class="solid"></line><line x1="348" y1="88" x2="348" y2="120" class="solid"></line><line x1="388" y1="88" x2="388" y2="120" class="solid"></line><line x1="428" y1="88" x2="428" y2="120" class="solid"></line><line x1="468" y1="88" x2="468" y2="120" class="solid"></line><line x1="508" y1="88" x2="508" y2="120" class="solid"></line><line x1="308" y1="120" x2="508" y2="120" class="solid"></line></g><g><line x1="520" y1="40" x2="528" y2="40" class="solid"></line><path d="M 528,40 A 4,4 0,0,1 532,44" class="nofill"></path><line x1="532" y1="44" x2="532" y2="164" class="broken"></line><line x1="520" y1="168" x2="528" y2="168" class="solid"></line><path d="M 532,164 A 4,4 0,0,1 528,168" class="nofill"></path></g></svg>