<?xml version="1.0" encoding="UTF-8" standalone="no"?>
<svg
   viewBox="0 0 70.306664 71.106667"
   version="1.1"
   id="svg1"
   width="70.306664"
   height="71.106667"
   xmlns="http://www.w3.org/2000/svg"
   xmlns:svg="http://www.w3.org/2000/svg">
  <defs
     id="defs1" />
  <path
     d="m 26.7,34.300002 h 16.9 q 3.5,0 6,-2.5 2.5,-2.6 2.5,-6.1 V 9.6000015 q 0,-3.5 -2.6,-5.9 -2.5,-2.4 -5.9,-2.89999997 -2.1,-0.4 -4.4,-0.6 Q 37,1.5258789e-6 34.8,1.5258789e-6 32.6,0.10000153 30.5,0.30000153 q -2,0.1 -3.8,0.5 -5.4,0.89999997 -7,2.99999997 -1.5,2 -1.5,5.8 v 6.4000005 h 17 v 2.1 H 11.9 q -3.7000004,0 -6.7000004,2.2 -2.9,2.2 -4,6.4 -1.09999998,4.8 -1.19999998146973,8.5 0,3.6 1.19999998146973,8.7 1,3.8 3.2,6.2 2.2,2.4 5.9000004,2.4 h 5.8 v -7.7 q 0,-4.2 3.1,-7.3 3.2,-3.2 7.5,-3.2 z m -1.1,-22.6 q -1.4,0 -2.3,-1 -0.9,-1.0000005 -0.9,-2.2000005 0,-1.4 0.9,-2.3 1,-0.9 2.3,-0.9 1.3,0 2.2,0.9 1,0.9 1,2.3 0,1.3 -1,2.3000005 -0.9,0.9 -2.2,0.9 z m 43.4,15 q -0.9,-3.7 -2.8,-6.1 -1.9,-2.5 -5.6,-2.5 h -6.4 v 7.6 q 0,4.4 -3.2,7.6 -3.2,3.1 -7.4,3.1 H 26.7 q -3.5,0 -6,2.6 -2.5,2.6 -2.5,6 v 16.1 q 0,3.5 2.5,5.6 2.6,2.1 6,3.1 4,1.2 8,1.3 4.1,0.1 8.9,-1.3 3.2,-1 5.8,-3 2.7,-2 2.7,-5.7 v -6.4 H 35.2 v -2.2 h 25.4 q 3.7,0 5.4,-2.3 1.7,-2.4 3,-6.3 1.4,-4 1.3,-8 0,-4.1 -1.3,-9.2 z m -24.3,32.3 q 1.4,0 2.3,1 0.9,0.9 0.9,2.2 0,1.4 -1,2.4 -0.9,0.9 -2.2,0.9 -1.3,0 -2.3,-0.9 -1,-1 -1,-2.4 0,-1.3 1,-2.2 1,-1 2.3,-1 z"
     id="text1"
     style="font-size:100px;fill:#0097ff"
     aria-label="" />
</svg>
