<svg xmlns="http://www.w3.org/2000/svg" width="756" height="216" class="svgbob">
  <style>.svgbob line, .svgbob path, .svgbob circle, .svgbob rect, .svgbob polygon {
  stroke: #0047AB;
  stroke-width: 2;
  stroke-opacity: 1;
  fill-opacity: 1;
  stroke-linecap: round;
  stroke-linejoin: miter;
}

.svgbob text {
  white-space: pre;
  fill: #0047AB;
  font-family: "Fira Mono";
  font-size: 20px;
}

.svgbob rect.backdrop {
  stroke: none;
  fill: white;
}

.svgbob .broken {
  stroke-dasharray: 8;
}

.svgbob .filled {
  fill: #0047AB;
}

.svgbob .bg_filled {
  fill: white;
  stroke-width: 1;
}

.svgbob .nofill {
  fill: white;
}

.svgbob .end_marked_arrow {
  marker-end: url(#arrow);
}

.svgbob .start_marked_arrow {
  marker-start: url(#arrow);
}

.svgbob .end_marked_diamond {
  marker-end: url(#diamond);
}

.svgbob .start_marked_diamond {
  marker-start: url(#diamond);
}

.svgbob .end_marked_circle {
  marker-end: url(#circle);
}

.svgbob .start_marked_circle {
  marker-start: url(#circle);
}

.svgbob .end_marked_open_circle {
  marker-end: url(#open_circle);
}

.svgbob .start_marked_open_circle {
  marker-start: url(#open_circle);
}

.svgbob .end_marked_big_open_circle {
  marker-end: url(#big_open_circle);
}

.svgbob .start_marked_big_open_circle {
  marker-start: url(#big_open_circle);
}

</style>
  <defs>
    <marker id="arrow" viewBox="-2 -2 8 8" refX="4" refY="2" markerWidth="7" markerHeight="7" orient="auto-start-reverse">
      <polygon points="0,0 0,4 4,2 0,0"></polygon>
    </marker>
    <marker id="diamond" viewBox="-2 -2 8 8" refX="4" refY="2" markerWidth="7" markerHeight="7" orient="auto-start-reverse">
      <polygon points="0,2 2,0 4,2 2,4 0,2"></polygon>
    </marker>
    <marker id="circle" viewBox="0 0 8 8" refX="4" refY="4" markerWidth="7" markerHeight="7" orient="auto-start-reverse">
      <circle cx="4" cy="4" r="2" class="filled"></circle>
    </marker>
    <marker id="open_circle" viewBox="0 0 8 8" refX="4" refY="4" markerWidth="7" markerHeight="7" orient="auto-start-reverse">
      <circle cx="4" cy="4" r="2" class="bg_filled"></circle>
    </marker>
    <marker id="big_open_circle" viewBox="0 0 8 8" refX="4" refY="4" markerWidth="7" markerHeight="7" orient="auto-start-reverse">
      <circle cx="4" cy="4" r="3" class="bg_filled"></circle>
    </marker>
  </defs>
  <rect class="backdrop" x="0" y="0" width="756" height="216"></rect>
  <line x1="198" y1="0" x2="198" y2="24" class="solid"></line>
  <polygon points="216,6 204,12 216,18" class="filled"></polygon>
  <line x1="216" y1="12" x2="384" y2="12" class="solid"></line>
  <text x="399" y="18" >size</text>
  <text x="459" y="18" >of</text>
  <text x="495" y="18" >enum</text>
  <line x1="552" y1="12" x2="720" y2="12" class="solid"></line>
  <polygon points="720,6 732,12 720,18" class="filled"></polygon>
  <line x1="738" y1="0" x2="738" y2="24" class="solid"></line>
  <text x="303" y="66" >isize</text>
  <text x="495" y="90" >u16</text>
  <text x="567" y="90" >u16</text>
  <text x="639" y="90" >unused</text>
  <text x="303" y="138" >isize</text>
  <text x="531" y="162" >f32</text>
  <text x="663" y="162" >f32</text>
  <text x="3" y="90" >Fruit::Banana:</text>
  <text x="15" y="162" >Fruit::Apple:</text>
  <text x="219" y="90" >(may be optimized)</text>
  <text x="219" y="162" >(may be optimized)</text>
  <g>
    <path d="M 204,36 A 6,6 0,0,0 198,42" class="nofill"></path>
    <line x1="198" y1="42" x2="198" y2="174" class="solid"></line>
    <line x1="204" y1="36" x2="732" y2="36" class="solid"></line>
    <line x1="474" y1="36" x2="474" y2="180" class="solid"></line>
    <line x1="546" y1="36" x2="546" y2="108" class="solid"></line>
    <line x1="618" y1="36" x2="618" y2="180" class="solid"></line>
    <path d="M 732,36 A 6,6 0,0,1 738,42" class="nofill"></path>
    <line x1="738" y1="42" x2="738" y2="174" class="solid"></line>
    <line x1="198" y1="108" x2="738" y2="108" class="solid"></line>
    <path d="M 198,174 A 6,6 0,0,0 204,180" class="nofill"></path>
    <line x1="204" y1="180" x2="732" y2="180" class="solid"></line>
    <path d="M 738,174 A 6,6 0,0,1 732,180" class="nofill"></path>
  </g>
</svg>