<svg xmlns="http://www.w3.org/2000/svg" width="804" height="432" class="svgbob">
  <style>.svgbob line, .svgbob path, .svgbob circle, .svgbob rect, .svgbob polygon {
  stroke: #0047AB;
  stroke-width: 2;
  stroke-opacity: 1;
  fill-opacity: 1;
  stroke-linecap: round;
  stroke-linejoin: miter;
}

.svgbob text {
  white-space: pre;
  fill: #0047AB;
  font-family: "Fira Mono";
  font-size: 20px;
}

.svgbob rect.backdrop {
  stroke: none;
  fill: white;
}

.svgbob .broken {
  stroke-dasharray: 8;
}

.svgbob .filled {
  fill: #0047AB;
}

.svgbob .bg_filled {
  fill: white;
  stroke-width: 1;
}

.svgbob .nofill {
  fill: white;
}

.svgbob .end_marked_arrow {
  marker-end: url(#arrow);
}

.svgbob .start_marked_arrow {
  marker-start: url(#arrow);
}

.svgbob .end_marked_diamond {
  marker-end: url(#diamond);
}

.svgbob .start_marked_diamond {
  marker-start: url(#diamond);
}

.svgbob .end_marked_circle {
  marker-end: url(#circle);
}

.svgbob .start_marked_circle {
  marker-start: url(#circle);
}

.svgbob .end_marked_open_circle {
  marker-end: url(#open_circle);
}

.svgbob .start_marked_open_circle {
  marker-start: url(#open_circle);
}

.svgbob .end_marked_big_open_circle {
  marker-end: url(#big_open_circle);
}

.svgbob .start_marked_big_open_circle {
  marker-start: url(#big_open_circle);
}

</style>
  <defs>
    <marker id="arrow" viewBox="-2 -2 8 8" refX="4" refY="2" markerWidth="7" markerHeight="7" orient="auto-start-reverse">
      <polygon points="0,0 0,4 4,2 0,0"></polygon>
    </marker>
    <marker id="diamond" viewBox="-2 -2 8 8" refX="4" refY="2" markerWidth="7" markerHeight="7" orient="auto-start-reverse">
      <polygon points="0,2 2,0 4,2 2,4 0,2"></polygon>
    </marker>
    <marker id="circle" viewBox="0 0 8 8" refX="4" refY="4" markerWidth="7" markerHeight="7" orient="auto-start-reverse">
      <circle cx="4" cy="4" r="2" class="filled"></circle>
    </marker>
    <marker id="open_circle" viewBox="0 0 8 8" refX="4" refY="4" markerWidth="7" markerHeight="7" orient="auto-start-reverse">
      <circle cx="4" cy="4" r="2" class="bg_filled"></circle>
    </marker>
    <marker id="big_open_circle" viewBox="0 0 8 8" refX="4" refY="4" markerWidth="7" markerHeight="7" orient="auto-start-reverse">
      <circle cx="4" cy="4" r="3" class="bg_filled"></circle>
    </marker>
  </defs>
  <rect class="backdrop" x="0" y="0" width="804" height="432"></rect>
  <text x="159" y="18" >Stack</text>
  <line x1="306" y1="0" x2="306" y2="72" class="broken"></line>
  <text x="147" y="90" >data</text>
  <polygon points="336,78 348,84 336,90" class="filled"></polygon>
  <line x1="306" y1="96" x2="306" y2="408" class="broken"></line>
  <text x="147" y="138" >capacity</text>
  <text x="147" y="186" >len</text>
  <text x="375" y="186" >...</text>
  <line x1="360" y1="249" x2="540" y2="249" class="solid"></line>
  <line x1="360" y1="255" x2="540" y2="255" class="solid"></line>
  <text x="495" y="330" >...</text>
  <text x="435" y="18" >Heap</text>
  <line x1="90" y1="66" x2="90" y2="60" class="solid end_marked_circle"></line>
  <line x1="90" y1="72" x2="90" y2="204" class="solid end_marked_open_circle"></line>
  <line x1="570" y1="66" x2="570" y2="60" class="solid end_marked_circle"></line>
  <line x1="570" y1="72" x2="570" y2="252" class="solid end_marked_open_circle"></line>
  <line x1="570" y1="258" x2="570" y2="396" class="solid end_marked_open_circle"></line>
  <text x="591" y="66" >Contiguous</text>
  <text x="723" y="66" >Memory</text>
  <text x="3" y="138" >Vec&lt;T&gt;</text>
  <text x="603" y="162" >Elements</text>
  <text x="603" y="330" >Free</text>
  <text x="663" y="330" >Capacity</text>
  <text x="375" y="90" >element-1</text>
  <text x="375" y="138" >element-2</text>
  <text x="375" y="234" >element-n</text>
  <text x="435" y="282" >cap-n+1</text>
  <text x="459" y="378" >cap-m</text>
  <g>
    <path d="M 132,60 A 6,6 0,0,0 126,66" class="nofill"></path>
    <line x1="126" y1="66" x2="126" y2="198" class="solid"></line>
    <line x1="132" y1="60" x2="252" y2="60" class="solid"></line>
    <path d="M 252,60 A 6,6 0,0,1 258,66" class="nofill"></path>
    <line x1="258" y1="66" x2="258" y2="198" class="solid"></line>
    <line x1="258" y1="84" x2="336" y2="84" class="solid"></line>
    <line x1="126" y1="108" x2="258" y2="108" class="solid"></line>
    <line x1="126" y1="156" x2="258" y2="156" class="solid"></line>
    <path d="M 126,198 A 6,6 0,0,0 132,204" class="nofill"></path>
    <line x1="132" y1="204" x2="252" y2="204" class="solid"></line>
    <path d="M 258,198 A 6,6 0,0,1 252,204" class="nofill"></path>
  </g>
  <g>
    <path d="M 360,60 A 6,6 0,0,0 354,66" class="nofill"></path>
    <line x1="354" y1="66" x2="354" y2="390" class="solid"></line>
    <line x1="360" y1="60" x2="540" y2="60" class="solid"></line>
    <path d="M 540,60 A 6,6 0,0,1 546,66" class="nofill"></path>
    <line x1="546" y1="66" x2="546" y2="390" class="solid"></line>
    <line x1="354" y1="108" x2="546" y2="108" class="solid"></line>
    <line x1="354" y1="156" x2="546" y2="156" class="solid"></line>
    <line x1="354" y1="204" x2="546" y2="204" class="solid"></line>
    <line x1="354" y1="300" x2="546" y2="300" class="solid"></line>
    <line x1="354" y1="348" x2="546" y2="348" class="solid"></line>
    <path d="M 354,390 A 6,6 0,0,0 360,396" class="nofill"></path>
    <line x1="360" y1="396" x2="540" y2="396" class="solid"></line>
    <path d="M 546,390 A 6,6 0,0,1 540,396" class="nofill"></path>
  </g>
</svg>