<?xml version="1.0" encoding="UTF-8" standalone="no"?>
<!DOCTYPE svg PUBLIC "-//W3C//DTD SVG 1.1//EN"
 "http://www.w3.org/Graphics/SVG/1.1/DTD/svg11.dtd">
<!-- Generated by graphviz version 12.2.1 (0)
 -->
<!-- Title: G Pages: 1 -->
<svg width="1398pt" height="548pt"
 viewBox="0.00 0.00 1398.12 548.00" xmlns="http://www.w3.org/2000/svg" xmlns:xlink="http://www.w3.org/1999/xlink">
<g id="graph0" class="graph" transform="scale(1 1) rotate(0) translate(4 544)">
<title>G</title>
<polygon fill="white" stroke="none" points="-4,4 -4,-544 1394.12,-544 1394.12,4 -4,4"/>
<!-- 7x9hf9g95d4wjjvq853x25jhakki63bz&#45;what&#45;is&#45;my&#45;ip -->
<g id="node1" class="node">
<title>7x9hf9g95d4wjjvq853x25jhakki63bz&#45;what&#45;is&#45;my&#45;ip</title>
<polygon fill="#ff0000" stroke="black" points="1203.08,-36 1109.83,-36 1109.83,0 1203.08,0 1203.08,-36"/>
<text text-anchor="middle" x="1156.45" y="-12.95" font-family="Times,serif" font-size="14.00">what&#45;is&#45;my&#45;ip</text>
</g>
<!-- mc4485g4apaqzjx59dsmqscls1zc3p2w&#45;bash&#45;5.2p37 -->
<g id="node2" class="node">
<title>mc4485g4apaqzjx59dsmqscls1zc3p2w&#45;bash&#45;5.2p37</title>
<polygon fill="#ff0000" stroke="black" points="1194.83,-324 1112.08,-324 1112.08,-288 1194.83,-288 1194.83,-324"/>
<text text-anchor="middle" x="1153.45" y="-300.95" font-family="Times,serif" font-size="14.00">bash&#45;5.2p37</text>
</g>
<!-- mc4485g4apaqzjx59dsmqscls1zc3p2w&#45;bash&#45;5.2p37&#45;&gt;7x9hf9g95d4wjjvq853x25jhakki63bz&#45;what&#45;is&#45;my&#45;ip -->
<g id="edge1" class="edge">
<title>mc4485g4apaqzjx59dsmqscls1zc3p2w&#45;bash&#45;5.2p37&#45;&gt;7x9hf9g95d4wjjvq853x25jhakki63bz&#45;what&#45;is&#45;my&#45;ip</title>
<path fill="none" stroke="black" d="M1153.63,-287.54C1154.14,-239.76 1155.53,-106.51 1156.15,-47.61"/>
<polygon fill="black" stroke="black" points="1159.65,-47.78 1156.25,-37.74 1152.65,-47.71 1159.65,-47.78"/>
</g>
<!-- wp9hkfl23miq2k6pzldrhwn1bzq0m82z&#45;krb5&#45;1.21.3&#45;lib -->
<g id="node18" class="node">
<title>wp9hkfl23miq2k6pzldrhwn1bzq0m82z&#45;krb5&#45;1.21.3&#45;lib</title>
<polygon fill="#ff0000" stroke="black" points="1128.7,-252 1030.2,-252 1030.2,-216 1128.7,-216 1128.7,-252"/>
<text text-anchor="middle" x="1079.45" y="-228.95" font-family="Times,serif" font-size="14.00">krb5&#45;1.21.3&#45;lib</text>
</g>
<!-- mc4485g4apaqzjx59dsmqscls1zc3p2w&#45;bash&#45;5.2p37&#45;&gt;wp9hkfl23miq2k6pzldrhwn1bzq0m82z&#45;krb5&#45;1.21.3&#45;lib -->
<g id="edge48" class="edge">
<title>mc4485g4apaqzjx59dsmqscls1zc3p2w&#45;bash&#45;5.2p37&#45;&gt;wp9hkfl23miq2k6pzldrhwn1bzq0m82z&#45;krb5&#45;1.21.3&#45;lib</title>
<path fill="none" stroke="burlywood" d="M1135.16,-287.7C1126.35,-279.37 1115.63,-269.22 1105.95,-260.07"/>
<polygon fill="burlywood" stroke="burlywood" points="1108.56,-257.72 1098.89,-253.39 1103.75,-262.8 1108.56,-257.72"/>
</g>
<!-- y50rkdixqzgdgnps2vrc8g0f0kyvpb9w&#45;jq&#45;1.7.1&#45;bin -->
<g id="node3" class="node">
<title>y50rkdixqzgdgnps2vrc8g0f0kyvpb9w&#45;jq&#45;1.7.1&#45;bin</title>
<polygon fill="#ff0000" stroke="black" points="1344.7,-180 1264.2,-180 1264.2,-144 1344.7,-144 1344.7,-180"/>
<text text-anchor="middle" x="1304.45" y="-156.95" font-family="Times,serif" font-size="14.00">jq&#45;1.7.1&#45;bin</text>
</g>
<!-- y50rkdixqzgdgnps2vrc8g0f0kyvpb9w&#45;jq&#45;1.7.1&#45;bin&#45;&gt;7x9hf9g95d4wjjvq853x25jhakki63bz&#45;what&#45;is&#45;my&#45;ip -->
<g id="edge2" class="edge">
<title>y50rkdixqzgdgnps2vrc8g0f0kyvpb9w&#45;jq&#45;1.7.1&#45;bin&#45;&gt;7x9hf9g95d4wjjvq853x25jhakki63bz&#45;what&#45;is&#45;my&#45;ip</title>
<path fill="none" stroke="red" d="M1286.3,-143.59C1260.31,-118.65 1212.33,-72.62 1182.54,-44.03"/>
<polygon fill="red" stroke="red" points="1185.02,-41.56 1175.38,-37.16 1180.17,-46.61 1185.02,-41.56"/>
</g>
<!-- zl7h70n70g5m57iw5pa8gqkxz6y0zfcf&#45;curl&#45;8.12.1&#45;bin -->
<g id="node4" class="node">
<title>zl7h70n70g5m57iw5pa8gqkxz6y0zfcf&#45;curl&#45;8.12.1&#45;bin</title>
<polygon fill="#ff0000" stroke="black" points="732.33,-108 634.58,-108 634.58,-72 732.33,-72 732.33,-108"/>
<text text-anchor="middle" x="683.45" y="-84.95" font-family="Times,serif" font-size="14.00">curl&#45;8.12.1&#45;bin</text>
</g>
<!-- zl7h70n70g5m57iw5pa8gqkxz6y0zfcf&#45;curl&#45;8.12.1&#45;bin&#45;&gt;7x9hf9g95d4wjjvq853x25jhakki63bz&#45;what&#45;is&#45;my&#45;ip -->
<g id="edge3" class="edge">
<title>zl7h70n70g5m57iw5pa8gqkxz6y0zfcf&#45;curl&#45;8.12.1&#45;bin&#45;&gt;7x9hf9g95d4wjjvq853x25jhakki63bz&#45;what&#45;is&#45;my&#45;ip</title>
<path fill="none" stroke="green" d="M732.73,-81.71C820.64,-68.7 1004.06,-41.55 1098.1,-27.64"/>
<polygon fill="green" stroke="green" points="1098.51,-31.11 1107.89,-26.19 1097.49,-24.19 1098.51,-31.11"/>
</g>
<!-- p9kdj55g5l39nbrxpjyz5wc1m0s7rzsx&#45;glibc&#45;2.40&#45;66 -->
<g id="node5" class="node">
<title>p9kdj55g5l39nbrxpjyz5wc1m0s7rzsx&#45;glibc&#45;2.40&#45;66</title>
<polygon fill="#ff0000" stroke="black" points="795.2,-396 705.7,-396 705.7,-360 795.2,-360 795.2,-396"/>
<text text-anchor="middle" x="750.45" y="-372.95" font-family="Times,serif" font-size="14.00">glibc&#45;2.40&#45;66</text>
</g>
<!-- p9kdj55g5l39nbrxpjyz5wc1m0s7rzsx&#45;glibc&#45;2.40&#45;66&#45;&gt;mc4485g4apaqzjx59dsmqscls1zc3p2w&#45;bash&#45;5.2p37 -->
<g id="edge4" class="edge">
<title>p9kdj55g5l39nbrxpjyz5wc1m0s7rzsx&#45;glibc&#45;2.40&#45;66&#45;&gt;mc4485g4apaqzjx59dsmqscls1zc3p2w&#45;bash&#45;5.2p37</title>
<path fill="none" stroke="blue" d="M795.63,-372.29C862.39,-364.85 991.08,-348.63 1098.45,-324 1099.12,-323.85 1099.79,-323.69 1100.47,-323.53"/>
<polygon fill="blue" stroke="blue" points="1101.32,-326.92 1110.12,-321.02 1099.56,-320.15 1101.32,-326.92"/>
</g>
<!-- p9kdj55g5l39nbrxpjyz5wc1m0s7rzsx&#45;glibc&#45;2.40&#45;66&#45;&gt;y50rkdixqzgdgnps2vrc8g0f0kyvpb9w&#45;jq&#45;1.7.1&#45;bin -->
<g id="edge10" class="edge">
<title>p9kdj55g5l39nbrxpjyz5wc1m0s7rzsx&#45;glibc&#45;2.40&#45;66&#45;&gt;y50rkdixqzgdgnps2vrc8g0f0kyvpb9w&#45;jq&#45;1.7.1&#45;bin</title>
<path fill="none" stroke="blue" d="M795.35,-376.47C930.68,-374.4 1327.77,-364.9 1367.45,-324 1400.9,-289.53 1392.38,-259.23 1371.45,-216 1365.96,-204.65 1356.73,-195 1346.85,-187.17"/>
<polygon fill="blue" stroke="blue" points="1349.05,-184.44 1338.91,-181.38 1344.93,-190.1 1349.05,-184.44"/>
</g>
<!-- p9kdj55g5l39nbrxpjyz5wc1m0s7rzsx&#45;glibc&#45;2.40&#45;66&#45;&gt;zl7h70n70g5m57iw5pa8gqkxz6y0zfcf&#45;curl&#45;8.12.1&#45;bin -->
<g id="edge22" class="edge">
<title>p9kdj55g5l39nbrxpjyz5wc1m0s7rzsx&#45;glibc&#45;2.40&#45;66&#45;&gt;zl7h70n70g5m57iw5pa8gqkxz6y0zfcf&#45;curl&#45;8.12.1&#45;bin</title>
<path fill="none" stroke="blue" d="M705.45,-372.93C631.76,-365.64 489.16,-348.79 445.45,-324 408.72,-303.16 398.15,-291.59 383.45,-252 344.77,-147.79 524.8,-109.8 623.09,-96.98"/>
<polygon fill="blue" stroke="blue" points="623.38,-100.47 632.86,-95.76 622.51,-93.53 623.38,-100.47"/>
</g>
<!-- 1vq9w3z2hini499225haslcsxca0r38y&#45;jq&#45;1.7.1 -->
<g id="node9" class="node">
<title>1vq9w3z2hini499225haslcsxca0r38y&#45;jq&#45;1.7.1</title>
<polygon fill="#ff0000" stroke="black" points="1362.83,-252 1304.08,-252 1304.08,-216 1362.83,-216 1362.83,-252"/>
<text text-anchor="middle" x="1333.45" y="-228.95" font-family="Times,serif" font-size="14.00">jq&#45;1.7.1</text>
</g>
<!-- p9kdj55g5l39nbrxpjyz5wc1m0s7rzsx&#45;glibc&#45;2.40&#45;66&#45;&gt;1vq9w3z2hini499225haslcsxca0r38y&#45;jq&#45;1.7.1 -->
<g id="edge12" class="edge">
<title>p9kdj55g5l39nbrxpjyz5wc1m0s7rzsx&#45;glibc&#45;2.40&#45;66&#45;&gt;1vq9w3z2hini499225haslcsxca0r38y&#45;jq&#45;1.7.1</title>
<path fill="none" stroke="burlywood" d="M795.47,-376.43C928.25,-374.29 1311.29,-364.6 1348.45,-324 1363.45,-307.62 1357.24,-282.09 1348.71,-262.57"/>
<polygon fill="burlywood" stroke="burlywood" points="1351.98,-261.3 1344.51,-253.8 1345.67,-264.33 1351.98,-261.3"/>
</g>
<!-- avk61vn2nmzx94g4w40sglms9vwl979m&#45;oniguruma&#45;6.9.9&#45;lib -->
<g id="node10" class="node">
<title>avk61vn2nmzx94g4w40sglms9vwl979m&#45;oniguruma&#45;6.9.9&#45;lib</title>
<polygon fill="#ff0000" stroke="black" points="1339.58,-324 1213.33,-324 1213.33,-288 1339.58,-288 1339.58,-324"/>
<text text-anchor="middle" x="1276.45" y="-300.95" font-family="Times,serif" font-size="14.00">oniguruma&#45;6.9.9&#45;lib</text>
</g>
<!-- p9kdj55g5l39nbrxpjyz5wc1m0s7rzsx&#45;glibc&#45;2.40&#45;66&#45;&gt;avk61vn2nmzx94g4w40sglms9vwl979m&#45;oniguruma&#45;6.9.9&#45;lib -->
<g id="edge13" class="edge">
<title>p9kdj55g5l39nbrxpjyz5wc1m0s7rzsx&#45;glibc&#45;2.40&#45;66&#45;&gt;avk61vn2nmzx94g4w40sglms9vwl979m&#45;oniguruma&#45;6.9.9&#45;lib</title>
<path fill="none" stroke="black" d="M795.38,-373.43C875.12,-366.72 1046.75,-350.65 1201.71,-324.18"/>
<polygon fill="black" stroke="black" points="1202.09,-327.67 1211.34,-322.52 1200.89,-320.77 1202.09,-327.67"/>
</g>
<!-- 1mlp55hh4avb3k1bg7x8d5jha299qmxj&#45;libpsl&#45;0.21.5 -->
<g id="node11" class="node">
<title>1mlp55hh4avb3k1bg7x8d5jha299qmxj&#45;libpsl&#45;0.21.5</title>
<polygon fill="#ff0000" stroke="black" points="294.95,-324 209.95,-324 209.95,-288 294.95,-288 294.95,-324"/>
<text text-anchor="middle" x="252.45" y="-300.95" font-family="Times,serif" font-size="14.00">libpsl&#45;0.21.5</text>
</g>
<!-- p9kdj55g5l39nbrxpjyz5wc1m0s7rzsx&#45;glibc&#45;2.40&#45;66&#45;&gt;1mlp55hh4avb3k1bg7x8d5jha299qmxj&#45;libpsl&#45;0.21.5 -->
<g id="edge28" class="edge">
<title>p9kdj55g5l39nbrxpjyz5wc1m0s7rzsx&#45;glibc&#45;2.40&#45;66&#45;&gt;1mlp55hh4avb3k1bg7x8d5jha299qmxj&#45;libpsl&#45;0.21.5</title>
<path fill="none" stroke="blue" d="M705.38,-371.62C631.22,-362.65 478.9,-343.64 350.45,-324 336.17,-321.82 320.77,-319.25 306.49,-316.77"/>
<polygon fill="blue" stroke="blue" points="307.27,-313.36 296.81,-315.08 306.06,-320.25 307.27,-313.36"/>
</g>
<!-- 2c45p9mz67aqha4bs6fhj6jy6b8jgvbl&#45;nghttp2&#45;1.64.0&#45;lib -->
<g id="node12" class="node">
<title>2c45p9mz67aqha4bs6fhj6jy6b8jgvbl&#45;nghttp2&#45;1.64.0&#45;lib</title>
<polygon fill="#ff0000" stroke="black" points="507.95,-252 392.95,-252 392.95,-216 507.95,-216 507.95,-252"/>
<text text-anchor="middle" x="450.45" y="-228.95" font-family="Times,serif" font-size="14.00">nghttp2&#45;1.64.0&#45;lib</text>
</g>
<!-- p9kdj55g5l39nbrxpjyz5wc1m0s7rzsx&#45;glibc&#45;2.40&#45;66&#45;&gt;2c45p9mz67aqha4bs6fhj6jy6b8jgvbl&#45;nghttp2&#45;1.64.0&#45;lib -->
<g id="edge29" class="edge">
<title>p9kdj55g5l39nbrxpjyz5wc1m0s7rzsx&#45;glibc&#45;2.40&#45;66&#45;&gt;2c45p9mz67aqha4bs6fhj6jy6b8jgvbl&#45;nghttp2&#45;1.64.0&#45;lib</title>
<path fill="none" stroke="magenta" d="M705.49,-365.14C675.06,-356.13 634.53,-342.2 601.45,-324 578.7,-311.49 577.37,-301.92 555.45,-288 537.87,-276.84 517.63,-266.16 499.65,-257.35"/>
<polygon fill="magenta" stroke="magenta" points="501.25,-254.23 490.72,-253.04 498.21,-260.54 501.25,-254.23"/>
</g>
<!-- 4lfxnin8975mpw09rf5hj4mpbzayxjq2&#45;openssl&#45;3.3.3 -->
<g id="node13" class="node">
<title>4lfxnin8975mpw09rf5hj4mpbzayxjq2&#45;openssl&#45;3.3.3</title>
<polygon fill="#ff0000" stroke="black" points="928.83,-324 840.08,-324 840.08,-288 928.83,-288 928.83,-324"/>
<text text-anchor="middle" x="884.45" y="-300.95" font-family="Times,serif" font-size="14.00">openssl&#45;3.3.3</text>
</g>
<!-- p9kdj55g5l39nbrxpjyz5wc1m0s7rzsx&#45;glibc&#45;2.40&#45;66&#45;&gt;4lfxnin8975mpw09rf5hj4mpbzayxjq2&#45;openssl&#45;3.3.3 -->
<g id="edge30" class="edge">
<title>p9kdj55g5l39nbrxpjyz5wc1m0s7rzsx&#45;glibc&#45;2.40&#45;66&#45;&gt;4lfxnin8975mpw09rf5hj4mpbzayxjq2&#45;openssl&#45;3.3.3</title>
<path fill="none" stroke="burlywood" d="M783.92,-359.52C801.32,-350.43 822.78,-339.22 841.4,-329.49"/>
<polygon fill="burlywood" stroke="burlywood" points="842.83,-332.69 850.07,-324.96 839.58,-326.49 842.83,-332.69"/>
</g>
<!-- bjkyxgrxyj9dnim0wqhi4addqz9pvc8n&#45;libssh2&#45;1.11.1 -->
<g id="node14" class="node">
<title>bjkyxgrxyj9dnim0wqhi4addqz9pvc8n&#45;libssh2&#45;1.11.1</title>
<polygon fill="#ff0000" stroke="black" points="898.08,-252 804.83,-252 804.83,-216 898.08,-216 898.08,-252"/>
<text text-anchor="middle" x="851.45" y="-228.95" font-family="Times,serif" font-size="14.00">libssh2&#45;1.11.1</text>
</g>
<!-- p9kdj55g5l39nbrxpjyz5wc1m0s7rzsx&#45;glibc&#45;2.40&#45;66&#45;&gt;bjkyxgrxyj9dnim0wqhi4addqz9pvc8n&#45;libssh2&#45;1.11.1 -->
<g id="edge33" class="edge">
<title>p9kdj55g5l39nbrxpjyz5wc1m0s7rzsx&#45;glibc&#45;2.40&#45;66&#45;&gt;bjkyxgrxyj9dnim0wqhi4addqz9pvc8n&#45;libssh2&#45;1.11.1</title>
<path fill="none" stroke="green" d="M765.25,-359.69C773.77,-349.51 784.52,-336.26 793.45,-324 808.23,-303.72 823.68,-279.86 834.92,-261.95"/>
<polygon fill="green" stroke="green" points="837.73,-264.04 840.05,-253.7 831.79,-260.34 837.73,-264.04"/>
</g>
<!-- d8qd8zi576431b4zq6629p71g8vi1588&#45;zlib&#45;1.3.1 -->
<g id="node15" class="node">
<title>d8qd8zi576431b4zq6629p71g8vi1588&#45;zlib&#45;1.3.1</title>
<polygon fill="#ff0000" stroke="black" points="784.7,-324 716.2,-324 716.2,-288 784.7,-288 784.7,-324"/>
<text text-anchor="middle" x="750.45" y="-300.95" font-family="Times,serif" font-size="14.00">zlib&#45;1.3.1</text>
</g>
<!-- p9kdj55g5l39nbrxpjyz5wc1m0s7rzsx&#45;glibc&#45;2.40&#45;66&#45;&gt;d8qd8zi576431b4zq6629p71g8vi1588&#45;zlib&#45;1.3.1 -->
<g id="edge34" class="edge">
<title>p9kdj55g5l39nbrxpjyz5wc1m0s7rzsx&#45;glibc&#45;2.40&#45;66&#45;&gt;d8qd8zi576431b4zq6629p71g8vi1588&#45;zlib&#45;1.3.1</title>
<path fill="none" stroke="blue" d="M750.45,-359.7C750.45,-352.41 750.45,-343.73 750.45,-335.54"/>
<polygon fill="blue" stroke="blue" points="753.95,-335.62 750.45,-325.62 746.95,-335.62 753.95,-335.62"/>
</g>
<!-- iq39chy7l7zr63ip7dkyf233c6hjaqig&#45;curl&#45;8.12.1 -->
<g id="node16" class="node">
<title>iq39chy7l7zr63ip7dkyf233c6hjaqig&#45;curl&#45;8.12.1</title>
<polygon fill="#ff0000" stroke="black" points="688.45,-180 612.45,-180 612.45,-144 688.45,-144 688.45,-180"/>
<text text-anchor="middle" x="650.45" y="-156.95" font-family="Times,serif" font-size="14.00">curl&#45;8.12.1</text>
</g>
<!-- p9kdj55g5l39nbrxpjyz5wc1m0s7rzsx&#45;glibc&#45;2.40&#45;66&#45;&gt;iq39chy7l7zr63ip7dkyf233c6hjaqig&#45;curl&#45;8.12.1 -->
<g id="edge42" class="edge">
<title>p9kdj55g5l39nbrxpjyz5wc1m0s7rzsx&#45;glibc&#45;2.40&#45;66&#45;&gt;iq39chy7l7zr63ip7dkyf233c6hjaqig&#45;curl&#45;8.12.1</title>
<path fill="none" stroke="burlywood" d="M729.96,-359.69C719.48,-350.02 707.13,-337.27 698.45,-324 671.43,-282.7 659.16,-225.65 653.94,-191.72"/>
<polygon fill="burlywood" stroke="burlywood" points="657.41,-191.25 652.54,-181.84 650.48,-192.23 657.41,-191.25"/>
</g>
<!-- j3wp50xkwbfgrbz5sy14lf0fxwvm9mss&#45;brotli&#45;1.1.0&#45;lib -->
<g id="node17" class="node">
<title>j3wp50xkwbfgrbz5sy14lf0fxwvm9mss&#45;brotli&#45;1.1.0&#45;lib</title>
<polygon fill="#ff0000" stroke="black" points="622.58,-252 526.33,-252 526.33,-216 622.58,-216 622.58,-252"/>
<text text-anchor="middle" x="574.45" y="-228.95" font-family="Times,serif" font-size="14.00">brotli&#45;1.1.0&#45;lib</text>
</g>
<!-- p9kdj55g5l39nbrxpjyz5wc1m0s7rzsx&#45;glibc&#45;2.40&#45;66&#45;&gt;j3wp50xkwbfgrbz5sy14lf0fxwvm9mss&#45;brotli&#45;1.1.0&#45;lib -->
<g id="edge45" class="edge">
<title>p9kdj55g5l39nbrxpjyz5wc1m0s7rzsx&#45;glibc&#45;2.40&#45;66&#45;&gt;j3wp50xkwbfgrbz5sy14lf0fxwvm9mss&#45;brotli&#45;1.1.0&#45;lib</title>
<path fill="none" stroke="green" d="M705.37,-362.39C683.03,-353.65 656.59,-340.92 636.45,-324 616.14,-306.93 599.4,-281.69 588.46,-262.44"/>
<polygon fill="green" stroke="green" points="591.59,-260.87 583.72,-253.78 585.45,-264.24 591.59,-260.87"/>
</g>
<!-- p9kdj55g5l39nbrxpjyz5wc1m0s7rzsx&#45;glibc&#45;2.40&#45;66&#45;&gt;wp9hkfl23miq2k6pzldrhwn1bzq0m82z&#45;krb5&#45;1.21.3&#45;lib -->
<g id="edge49" class="edge">
<title>p9kdj55g5l39nbrxpjyz5wc1m0s7rzsx&#45;glibc&#45;2.40&#45;66&#45;&gt;wp9hkfl23miq2k6pzldrhwn1bzq0m82z&#45;krb5&#45;1.21.3&#45;lib</title>
<path fill="none" stroke="black" d="M795.69,-375.69C873.65,-372.45 1028.5,-361.35 1065.45,-324 1080.85,-308.44 1083.59,-283.29 1082.92,-263.69"/>
<polygon fill="black" stroke="black" points="1086.42,-263.59 1082.24,-253.85 1079.44,-264.07 1086.42,-263.59"/>
</g>
<!-- y8f0y8lavw4zh4g6k36pjkny3flj9ybn&#45;zstd&#45;1.5.6 -->
<g id="node19" class="node">
<title>y8f0y8lavw4zh4g6k36pjkny3flj9ybn&#45;zstd&#45;1.5.6</title>
<polygon fill="#ff0000" stroke="black" points="748.45,-252 678.45,-252 678.45,-216 748.45,-216 748.45,-252"/>
<text text-anchor="middle" x="713.45" y="-228.95" font-family="Times,serif" font-size="14.00">zstd&#45;1.5.6</text>
</g>
<!-- p9kdj55g5l39nbrxpjyz5wc1m0s7rzsx&#45;glibc&#45;2.40&#45;66&#45;&gt;y8f0y8lavw4zh4g6k36pjkny3flj9ybn&#45;zstd&#45;1.5.6 -->
<g id="edge51" class="edge">
<title>p9kdj55g5l39nbrxpjyz5wc1m0s7rzsx&#45;glibc&#45;2.40&#45;66&#45;&gt;y8f0y8lavw4zh4g6k36pjkny3flj9ybn&#45;zstd&#45;1.5.6</title>
<path fill="none" stroke="green" d="M731.41,-359.84C722.28,-350.3 712.28,-337.62 707.45,-324 700.56,-304.58 702.46,-281.3 705.86,-263.42"/>
<polygon fill="green" stroke="green" points="709.26,-264.28 707.99,-253.76 702.42,-262.78 709.26,-264.28"/>
</g>
<!-- 960xn2h7rwx5mna68s002mcwbx7yhbk9&#45;keyutils&#45;1.6.3&#45;lib -->
<g id="node21" class="node">
<title>960xn2h7rwx5mna68s002mcwbx7yhbk9&#45;keyutils&#45;1.6.3&#45;lib</title>
<polygon fill="#ff0000" stroke="black" points="1056.33,-324 946.58,-324 946.58,-288 1056.33,-288 1056.33,-324"/>
<text text-anchor="middle" x="1001.45" y="-300.95" font-family="Times,serif" font-size="14.00">keyutils&#45;1.6.3&#45;lib</text>
</g>
<!-- p9kdj55g5l39nbrxpjyz5wc1m0s7rzsx&#45;glibc&#45;2.40&#45;66&#45;&gt;960xn2h7rwx5mna68s002mcwbx7yhbk9&#45;keyutils&#45;1.6.3&#45;lib -->
<g id="edge50" class="edge">
<title>p9kdj55g5l39nbrxpjyz5wc1m0s7rzsx&#45;glibc&#45;2.40&#45;66&#45;&gt;960xn2h7rwx5mna68s002mcwbx7yhbk9&#45;keyutils&#45;1.6.3&#45;lib</title>
<path fill="none" stroke="red" d="M795.61,-364.4C834.52,-353.55 891.19,-337.75 935.23,-325.47"/>
<polygon fill="red" stroke="red" points="935.98,-328.89 944.67,-322.83 934.1,-322.15 935.98,-328.89"/>
</g>
<!-- w47x7y9xjgq7n3171ckg722ddwf2pi3v&#45;gcc&#45;13.3.0&#45;lib -->
<g id="node22" class="node">
<title>w47x7y9xjgq7n3171ckg722ddwf2pi3v&#45;gcc&#45;13.3.0&#45;lib</title>
<polygon fill="#ff0000" stroke="black" points="546.7,-324 454.2,-324 454.2,-288 546.7,-288 546.7,-324"/>
<text text-anchor="middle" x="500.45" y="-300.95" font-family="Times,serif" font-size="14.00">gcc&#45;13.3.0&#45;lib</text>
</g>
<!-- p9kdj55g5l39nbrxpjyz5wc1m0s7rzsx&#45;glibc&#45;2.40&#45;66&#45;&gt;w47x7y9xjgq7n3171ckg722ddwf2pi3v&#45;gcc&#45;13.3.0&#45;lib -->
<g id="edge54" class="edge">
<title>p9kdj55g5l39nbrxpjyz5wc1m0s7rzsx&#45;glibc&#45;2.40&#45;66&#45;&gt;w47x7y9xjgq7n3171ckg722ddwf2pi3v&#45;gcc&#45;13.3.0&#45;lib</title>
<path fill="none" stroke="burlywood" d="M705.52,-364.52C667.01,-353.81 610.07,-337.95 560.45,-324 559.63,-323.77 558.8,-323.54 557.97,-323.3"/>
<polygon fill="burlywood" stroke="burlywood" points="558.99,-319.95 548.42,-320.61 557.09,-326.69 558.99,-319.95"/>
</g>
<!-- c47b963idja6h1d8n91pf28v2jcq96kp&#45;libidn2&#45;2.3.7 -->
<g id="node6" class="node">
<title>c47b963idja6h1d8n91pf28v2jcq96kp&#45;libidn2&#45;2.3.7</title>
<polygon fill="#ff0000" stroke="black" points="331.7,-468 245.2,-468 245.2,-432 331.7,-432 331.7,-468"/>
<text text-anchor="middle" x="288.45" y="-444.95" font-family="Times,serif" font-size="14.00">libidn2&#45;2.3.7</text>
</g>
<!-- c47b963idja6h1d8n91pf28v2jcq96kp&#45;libidn2&#45;2.3.7&#45;&gt;zl7h70n70g5m57iw5pa8gqkxz6y0zfcf&#45;curl&#45;8.12.1&#45;bin -->
<g id="edge18" class="edge">
<title>c47b963idja6h1d8n91pf28v2jcq96kp&#45;libidn2&#45;2.3.7&#45;&gt;zl7h70n70g5m57iw5pa8gqkxz6y0zfcf&#45;curl&#45;8.12.1&#45;bin</title>
<path fill="none" stroke="burlywood" d="M244.87,-446.07C177.48,-440.62 52.5,-426.6 21.45,-396 -7.35,-367.61 2.45,-347.45 2.45,-307 2.45,-307 2.45,-307 2.45,-233 2.45,-106.75 456.66,-92 623.19,-90.84"/>
<polygon fill="burlywood" stroke="burlywood" points="622.71,-94.34 632.69,-90.79 622.67,-87.34 622.71,-94.34"/>
</g>
<!-- c47b963idja6h1d8n91pf28v2jcq96kp&#45;libidn2&#45;2.3.7&#45;&gt;p9kdj55g5l39nbrxpjyz5wc1m0s7rzsx&#45;glibc&#45;2.40&#45;66 -->
<g id="edge5" class="edge">
<title>c47b963idja6h1d8n91pf28v2jcq96kp&#45;libidn2&#45;2.3.7&#45;&gt;p9kdj55g5l39nbrxpjyz5wc1m0s7rzsx&#45;glibc&#45;2.40&#45;66</title>
<path fill="none" stroke="magenta" d="M331.92,-442.41C416.01,-429.67 600.91,-401.66 694.22,-387.52"/>
<polygon fill="magenta" stroke="magenta" points="694.55,-391.01 703.91,-386.05 693.5,-384.09 694.55,-391.01"/>
</g>
<!-- c47b963idja6h1d8n91pf28v2jcq96kp&#45;libidn2&#45;2.3.7&#45;&gt;1mlp55hh4avb3k1bg7x8d5jha299qmxj&#45;libpsl&#45;0.21.5 -->
<g id="edge27" class="edge">
<title>c47b963idja6h1d8n91pf28v2jcq96kp&#45;libidn2&#45;2.3.7&#45;&gt;1mlp55hh4avb3k1bg7x8d5jha299qmxj&#45;libpsl&#45;0.21.5</title>
<path fill="none" stroke="green" d="M285.31,-431.82C281.9,-413.8 276.04,-384.73 269.45,-360 267.25,-351.75 264.55,-342.88 261.95,-334.8"/>
<polygon fill="green" stroke="green" points="265.33,-333.9 258.88,-325.49 258.68,-336.09 265.33,-333.9"/>
</g>
<!-- c47b963idja6h1d8n91pf28v2jcq96kp&#45;libidn2&#45;2.3.7&#45;&gt;iq39chy7l7zr63ip7dkyf233c6hjaqig&#45;curl&#45;8.12.1 -->
<g id="edge39" class="edge">
<title>c47b963idja6h1d8n91pf28v2jcq96kp&#45;libidn2&#45;2.3.7&#45;&gt;iq39chy7l7zr63ip7dkyf233c6hjaqig&#45;curl&#45;8.12.1</title>
<path fill="none" stroke="green" d="M290.04,-431.73C295.01,-388.12 314.37,-272.99 383.45,-216 415.97,-189.17 532.87,-173.99 600.72,-167.26"/>
<polygon fill="green" stroke="green" points="600.85,-170.76 610.47,-166.32 600.18,-163.8 600.85,-170.76"/>
</g>
<!-- y4d9iir0yqmrcswaqfi368d8m1rkv14s&#45;xgcc&#45;13.3.0&#45;libgcc -->
<g id="node7" class="node">
<title>y4d9iir0yqmrcswaqfi368d8m1rkv14s&#45;xgcc&#45;13.3.0&#45;libgcc</title>
<polygon fill="#ff0000" stroke="black" points="809.45,-468 691.45,-468 691.45,-432 809.45,-432 809.45,-468"/>
<text text-anchor="middle" x="750.45" y="-444.95" font-family="Times,serif" font-size="14.00">xgcc&#45;13.3.0&#45;libgcc</text>
</g>
<!-- y4d9iir0yqmrcswaqfi368d8m1rkv14s&#45;xgcc&#45;13.3.0&#45;libgcc&#45;&gt;p9kdj55g5l39nbrxpjyz5wc1m0s7rzsx&#45;glibc&#45;2.40&#45;66 -->
<g id="edge6" class="edge">
<title>y4d9iir0yqmrcswaqfi368d8m1rkv14s&#45;xgcc&#45;13.3.0&#45;libgcc&#45;&gt;p9kdj55g5l39nbrxpjyz5wc1m0s7rzsx&#45;glibc&#45;2.40&#45;66</title>
<path fill="none" stroke="burlywood" d="M750.45,-431.7C750.45,-424.41 750.45,-415.73 750.45,-407.54"/>
<polygon fill="burlywood" stroke="burlywood" points="753.95,-407.62 750.45,-397.62 746.95,-407.62 753.95,-407.62"/>
</g>
<!-- 2745pvn6cv32yn9gp2rlqiqhqgs01pb5&#45;libunistring&#45;1.2 -->
<g id="node8" class="node">
<title>2745pvn6cv32yn9gp2rlqiqhqgs01pb5&#45;libunistring&#45;1.2</title>
<polygon fill="#ff0000" stroke="black" points="176.45,-540 76.45,-540 76.45,-504 176.45,-504 176.45,-540"/>
<text text-anchor="middle" x="126.45" y="-516.95" font-family="Times,serif" font-size="14.00">libunistring&#45;1.2</text>
</g>
<!-- 2745pvn6cv32yn9gp2rlqiqhqgs01pb5&#45;libunistring&#45;1.2&#45;&gt;c47b963idja6h1d8n91pf28v2jcq96kp&#45;libidn2&#45;2.3.7 -->
<g id="edge7" class="edge">
<title>2745pvn6cv32yn9gp2rlqiqhqgs01pb5&#45;libunistring&#45;1.2&#45;&gt;c47b963idja6h1d8n91pf28v2jcq96kp&#45;libidn2&#45;2.3.7</title>
<path fill="none" stroke="black" d="M166.91,-503.52C188.35,-494.25 214.9,-482.78 237.71,-472.93"/>
<polygon fill="black" stroke="black" points="239.04,-476.16 246.84,-468.98 236.27,-469.74 239.04,-476.16"/>
</g>
<!-- 2745pvn6cv32yn9gp2rlqiqhqgs01pb5&#45;libunistring&#45;1.2&#45;&gt;1mlp55hh4avb3k1bg7x8d5jha299qmxj&#45;libpsl&#45;0.21.5 -->
<g id="edge26" class="edge">
<title>2745pvn6cv32yn9gp2rlqiqhqgs01pb5&#45;libunistring&#45;1.2&#45;&gt;1mlp55hh4avb3k1bg7x8d5jha299qmxj&#45;libpsl&#45;0.21.5</title>
<path fill="none" stroke="red" d="M100.23,-503.59C57.71,-473.24 -17.74,-409.2 21.45,-360 43.13,-332.79 136.96,-318.4 198.16,-311.77"/>
<polygon fill="red" stroke="red" points="198.47,-315.26 208.06,-310.74 197.75,-308.29 198.47,-315.26"/>
</g>
<!-- 1vq9w3z2hini499225haslcsxca0r38y&#45;jq&#45;1.7.1&#45;&gt;y50rkdixqzgdgnps2vrc8g0f0kyvpb9w&#45;jq&#45;1.7.1&#45;bin -->
<g id="edge8" class="edge">
<title>1vq9w3z2hini499225haslcsxca0r38y&#45;jq&#45;1.7.1&#45;&gt;y50rkdixqzgdgnps2vrc8g0f0kyvpb9w&#45;jq&#45;1.7.1&#45;bin</title>
<path fill="none" stroke="red" d="M1326.28,-215.7C1323.16,-208.15 1319.41,-199.12 1315.92,-190.68"/>
<polygon fill="red" stroke="red" points="1319.18,-189.4 1312.12,-181.5 1312.71,-192.08 1319.18,-189.4"/>
</g>
<!-- avk61vn2nmzx94g4w40sglms9vwl979m&#45;oniguruma&#45;6.9.9&#45;lib&#45;&gt;y50rkdixqzgdgnps2vrc8g0f0kyvpb9w&#45;jq&#45;1.7.1&#45;bin -->
<g id="edge9" class="edge">
<title>avk61vn2nmzx94g4w40sglms9vwl979m&#45;oniguruma&#45;6.9.9&#45;lib&#45;&gt;y50rkdixqzgdgnps2vrc8g0f0kyvpb9w&#45;jq&#45;1.7.1&#45;bin</title>
<path fill="none" stroke="green" d="M1279.88,-287.59C1284.63,-263.5 1293.26,-219.75 1298.92,-191.03"/>
<polygon fill="green" stroke="green" points="1302.28,-192.08 1300.78,-181.6 1295.42,-190.73 1302.28,-192.08"/>
</g>
<!-- avk61vn2nmzx94g4w40sglms9vwl979m&#45;oniguruma&#45;6.9.9&#45;lib&#45;&gt;1vq9w3z2hini499225haslcsxca0r38y&#45;jq&#45;1.7.1 -->
<g id="edge11" class="edge">
<title>avk61vn2nmzx94g4w40sglms9vwl979m&#45;oniguruma&#45;6.9.9&#45;lib&#45;&gt;1vq9w3z2hini499225haslcsxca0r38y&#45;jq&#45;1.7.1</title>
<path fill="none" stroke="magenta" d="M1290.54,-287.7C1297.1,-279.64 1305.04,-269.89 1312.29,-260.98"/>
<polygon fill="magenta" stroke="magenta" points="1314.97,-263.24 1318.57,-253.28 1309.54,-258.82 1314.97,-263.24"/>
</g>
<!-- 1mlp55hh4avb3k1bg7x8d5jha299qmxj&#45;libpsl&#45;0.21.5&#45;&gt;zl7h70n70g5m57iw5pa8gqkxz6y0zfcf&#45;curl&#45;8.12.1&#45;bin -->
<g id="edge14" class="edge">
<title>1mlp55hh4avb3k1bg7x8d5jha299qmxj&#45;libpsl&#45;0.21.5&#45;&gt;zl7h70n70g5m57iw5pa8gqkxz6y0zfcf&#45;curl&#45;8.12.1&#45;bin</title>
<path fill="none" stroke="red" d="M253.84,-287.52C255.98,-268.74 261.31,-238.56 274.45,-216 297.87,-175.79 308.72,-164.58 350.45,-144 397.27,-120.91 540.5,-104.27 623.06,-96.3"/>
<polygon fill="red" stroke="red" points="623.16,-99.8 632.79,-95.37 622.5,-92.83 623.16,-99.8"/>
</g>
<!-- 1mlp55hh4avb3k1bg7x8d5jha299qmxj&#45;libpsl&#45;0.21.5&#45;&gt;iq39chy7l7zr63ip7dkyf233c6hjaqig&#45;curl&#45;8.12.1 -->
<g id="edge35" class="edge">
<title>1mlp55hh4avb3k1bg7x8d5jha299qmxj&#45;libpsl&#45;0.21.5&#45;&gt;iq39chy7l7zr63ip7dkyf233c6hjaqig&#45;curl&#45;8.12.1</title>
<path fill="none" stroke="magenta" d="M259.01,-287.74C267.83,-267.07 285.57,-233.1 312.45,-216 359.43,-186.11 518.88,-171.58 600.87,-165.94"/>
<polygon fill="magenta" stroke="magenta" points="600.89,-169.44 610.63,-165.28 600.42,-162.46 600.89,-169.44"/>
</g>
<!-- 2c45p9mz67aqha4bs6fhj6jy6b8jgvbl&#45;nghttp2&#45;1.64.0&#45;lib&#45;&gt;zl7h70n70g5m57iw5pa8gqkxz6y0zfcf&#45;curl&#45;8.12.1&#45;bin -->
<g id="edge15" class="edge">
<title>2c45p9mz67aqha4bs6fhj6jy6b8jgvbl&#45;nghttp2&#45;1.64.0&#45;lib&#45;&gt;zl7h70n70g5m57iw5pa8gqkxz6y0zfcf&#45;curl&#45;8.12.1&#45;bin</title>
<path fill="none" stroke="green" d="M474.26,-215.78C500.31,-197.23 543.53,-167.24 582.45,-144 600.22,-133.39 620.31,-122.61 637.86,-113.57"/>
<polygon fill="green" stroke="green" points="639.21,-116.82 646.52,-109.15 636.03,-110.58 639.21,-116.82"/>
</g>
<!-- 2c45p9mz67aqha4bs6fhj6jy6b8jgvbl&#45;nghttp2&#45;1.64.0&#45;lib&#45;&gt;iq39chy7l7zr63ip7dkyf233c6hjaqig&#45;curl&#45;8.12.1 -->
<g id="edge36" class="edge">
<title>2c45p9mz67aqha4bs6fhj6jy6b8jgvbl&#45;nghttp2&#45;1.64.0&#45;lib&#45;&gt;iq39chy7l7zr63ip7dkyf233c6hjaqig&#45;curl&#45;8.12.1</title>
<path fill="none" stroke="burlywood" d="M500.4,-215.52C531.35,-204.69 570.91,-190.84 601.64,-180.08"/>
<polygon fill="burlywood" stroke="burlywood" points="602.4,-183.53 610.69,-176.92 600.09,-176.92 602.4,-183.53"/>
</g>
<!-- 4lfxnin8975mpw09rf5hj4mpbzayxjq2&#45;openssl&#45;3.3.3&#45;&gt;zl7h70n70g5m57iw5pa8gqkxz6y0zfcf&#45;curl&#45;8.12.1&#45;bin -->
<g id="edge16" class="edge">
<title>4lfxnin8975mpw09rf5hj4mpbzayxjq2&#45;openssl&#45;3.3.3&#45;&gt;zl7h70n70g5m57iw5pa8gqkxz6y0zfcf&#45;curl&#45;8.12.1&#45;bin</title>
<path fill="none" stroke="blue" d="M902.62,-287.68C911.34,-278.1 920.86,-265.43 925.45,-252 930.62,-236.86 930.64,-231.13 925.45,-216 912.29,-177.65 903.05,-166.68 869.45,-144 831.83,-118.61 782.09,-105.26 743.51,-98.31"/>
<polygon fill="blue" stroke="blue" points="744.37,-94.91 733.93,-96.69 743.2,-101.81 744.37,-94.91"/>
</g>
<!-- 4lfxnin8975mpw09rf5hj4mpbzayxjq2&#45;openssl&#45;3.3.3&#45;&gt;bjkyxgrxyj9dnim0wqhi4addqz9pvc8n&#45;libssh2&#45;1.11.1 -->
<g id="edge31" class="edge">
<title>4lfxnin8975mpw09rf5hj4mpbzayxjq2&#45;openssl&#45;3.3.3&#45;&gt;bjkyxgrxyj9dnim0wqhi4addqz9pvc8n&#45;libssh2&#45;1.11.1</title>
<path fill="none" stroke="black" d="M876.29,-287.7C872.7,-280.07 868.38,-270.92 864.37,-262.4"/>
<polygon fill="black" stroke="black" points="867.59,-261.03 860.16,-253.47 861.26,-264.01 867.59,-261.03"/>
</g>
<!-- 4lfxnin8975mpw09rf5hj4mpbzayxjq2&#45;openssl&#45;3.3.3&#45;&gt;iq39chy7l7zr63ip7dkyf233c6hjaqig&#45;curl&#45;8.12.1 -->
<g id="edge37" class="edge">
<title>4lfxnin8975mpw09rf5hj4mpbzayxjq2&#45;openssl&#45;3.3.3&#45;&gt;iq39chy7l7zr63ip7dkyf233c6hjaqig&#45;curl&#45;8.12.1</title>
<path fill="none" stroke="black" d="M896.96,-287.7C909.37,-268.24 924.29,-236.66 907.45,-216 881.78,-184.49 767.05,-171.16 699.87,-165.97"/>
<polygon fill="black" stroke="black" points="700.46,-162.5 690.23,-165.26 699.94,-169.49 700.46,-162.5"/>
</g>
<!-- 4lfxnin8975mpw09rf5hj4mpbzayxjq2&#45;openssl&#45;3.3.3&#45;&gt;wp9hkfl23miq2k6pzldrhwn1bzq0m82z&#45;krb5&#45;1.21.3&#45;lib -->
<g id="edge46" class="edge">
<title>4lfxnin8975mpw09rf5hj4mpbzayxjq2&#45;openssl&#45;3.3.3&#45;&gt;wp9hkfl23miq2k6pzldrhwn1bzq0m82z&#45;krb5&#45;1.21.3&#45;lib</title>
<path fill="none" stroke="blue" d="M929.19,-288.94C956.23,-279.23 991.01,-266.75 1020.31,-256.23"/>
<polygon fill="blue" stroke="blue" points="1021.17,-259.64 1029.4,-252.97 1018.8,-253.05 1021.17,-259.64"/>
</g>
<!-- bjkyxgrxyj9dnim0wqhi4addqz9pvc8n&#45;libssh2&#45;1.11.1&#45;&gt;zl7h70n70g5m57iw5pa8gqkxz6y0zfcf&#45;curl&#45;8.12.1&#45;bin -->
<g id="edge17" class="edge">
<title>bjkyxgrxyj9dnim0wqhi4addqz9pvc8n&#45;libssh2&#45;1.11.1&#45;&gt;zl7h70n70g5m57iw5pa8gqkxz6y0zfcf&#45;curl&#45;8.12.1&#45;bin</title>
<path fill="none" stroke="magenta" d="M830.85,-215.59C801.17,-190.5 746.25,-144.08 712.47,-115.53"/>
<polygon fill="magenta" stroke="magenta" points="715.01,-113.09 705.11,-109.31 710.49,-118.44 715.01,-113.09"/>
</g>
<!-- bjkyxgrxyj9dnim0wqhi4addqz9pvc8n&#45;libssh2&#45;1.11.1&#45;&gt;iq39chy7l7zr63ip7dkyf233c6hjaqig&#45;curl&#45;8.12.1 -->
<g id="edge38" class="edge">
<title>bjkyxgrxyj9dnim0wqhi4addqz9pvc8n&#45;libssh2&#45;1.11.1&#45;&gt;iq39chy7l7zr63ip7dkyf233c6hjaqig&#45;curl&#45;8.12.1</title>
<path fill="none" stroke="red" d="M804.58,-216.68C772.9,-205.64 731.16,-191.11 699.1,-179.94"/>
<polygon fill="red" stroke="red" points="700.66,-176.78 690.06,-176.8 698.36,-183.39 700.66,-176.78"/>
</g>
<!-- d8qd8zi576431b4zq6629p71g8vi1588&#45;zlib&#45;1.3.1&#45;&gt;zl7h70n70g5m57iw5pa8gqkxz6y0zfcf&#45;curl&#45;8.12.1&#45;bin -->
<g id="edge19" class="edge">
<title>d8qd8zi576431b4zq6629p71g8vi1588&#45;zlib&#45;1.3.1&#45;&gt;zl7h70n70g5m57iw5pa8gqkxz6y0zfcf&#45;curl&#45;8.12.1&#45;bin</title>
<path fill="none" stroke="black" d="M785.05,-298.2C826.73,-289.21 892.98,-272.16 907.45,-252 916.78,-239 915.48,-229.84 907.45,-216 872.63,-156 797.25,-122.74 743.56,-105.89"/>
<polygon fill="black" stroke="black" points="744.83,-102.61 734.25,-103.07 742.81,-109.32 744.83,-102.61"/>
</g>
<!-- d8qd8zi576431b4zq6629p71g8vi1588&#45;zlib&#45;1.3.1&#45;&gt;bjkyxgrxyj9dnim0wqhi4addqz9pvc8n&#45;libssh2&#45;1.11.1 -->
<g id="edge32" class="edge">
<title>d8qd8zi576431b4zq6629p71g8vi1588&#45;zlib&#45;1.3.1&#45;&gt;bjkyxgrxyj9dnim0wqhi4addqz9pvc8n&#45;libssh2&#45;1.11.1</title>
<path fill="none" stroke="red" d="M775.68,-287.52C788.31,-278.76 803.77,-268.04 817.43,-258.58"/>
<polygon fill="red" stroke="red" points="819.08,-261.7 825.3,-253.12 815.09,-255.94 819.08,-261.7"/>
</g>
<!-- d8qd8zi576431b4zq6629p71g8vi1588&#45;zlib&#45;1.3.1&#45;&gt;iq39chy7l7zr63ip7dkyf233c6hjaqig&#45;curl&#45;8.12.1 -->
<g id="edge40" class="edge">
<title>d8qd8zi576431b4zq6629p71g8vi1588&#45;zlib&#45;1.3.1&#45;&gt;iq39chy7l7zr63ip7dkyf233c6hjaqig&#45;curl&#45;8.12.1</title>
<path fill="none" stroke="blue" d="M757.47,-287.84C764.05,-268.79 771.02,-237.86 757.45,-216 744.69,-195.43 721.3,-182.6 699.65,-174.73"/>
<polygon fill="blue" stroke="blue" points="700.91,-171.46 690.31,-171.62 698.7,-178.1 700.91,-171.46"/>
</g>
<!-- iq39chy7l7zr63ip7dkyf233c6hjaqig&#45;curl&#45;8.12.1&#45;&gt;zl7h70n70g5m57iw5pa8gqkxz6y0zfcf&#45;curl&#45;8.12.1&#45;bin -->
<g id="edge20" class="edge">
<title>iq39chy7l7zr63ip7dkyf233c6hjaqig&#45;curl&#45;8.12.1&#45;&gt;zl7h70n70g5m57iw5pa8gqkxz6y0zfcf&#45;curl&#45;8.12.1&#45;bin</title>
<path fill="none" stroke="red" d="M658.61,-143.7C662.21,-136.07 666.52,-126.92 670.54,-118.4"/>
<polygon fill="red" stroke="red" points="673.64,-120.01 674.74,-109.47 667.31,-117.03 673.64,-120.01"/>
</g>
<!-- j3wp50xkwbfgrbz5sy14lf0fxwvm9mss&#45;brotli&#45;1.1.0&#45;lib&#45;&gt;zl7h70n70g5m57iw5pa8gqkxz6y0zfcf&#45;curl&#45;8.12.1&#45;bin -->
<g id="edge21" class="edge">
<title>j3wp50xkwbfgrbz5sy14lf0fxwvm9mss&#45;brotli&#45;1.1.0&#45;lib&#45;&gt;zl7h70n70g5m57iw5pa8gqkxz6y0zfcf&#45;curl&#45;8.12.1&#45;bin</title>
<path fill="none" stroke="green" d="M576.63,-215.7C579.77,-196.52 587.12,-165.47 603.45,-144 612.37,-132.28 624.66,-122.34 636.94,-114.34"/>
<polygon fill="green" stroke="green" points="638.73,-117.35 645.42,-109.14 635.07,-111.38 638.73,-117.35"/>
</g>
<!-- j3wp50xkwbfgrbz5sy14lf0fxwvm9mss&#45;brotli&#45;1.1.0&#45;lib&#45;&gt;iq39chy7l7zr63ip7dkyf233c6hjaqig&#45;curl&#45;8.12.1 -->
<g id="edge41" class="edge">
<title>j3wp50xkwbfgrbz5sy14lf0fxwvm9mss&#45;brotli&#45;1.1.0&#45;lib&#45;&gt;iq39chy7l7zr63ip7dkyf233c6hjaqig&#45;curl&#45;8.12.1</title>
<path fill="none" stroke="magenta" d="M593.24,-215.7C602.28,-207.37 613.29,-197.22 623.23,-188.07"/>
<polygon fill="magenta" stroke="magenta" points="625.52,-190.72 630.5,-181.37 620.78,-185.57 625.52,-190.72"/>
</g>
<!-- wp9hkfl23miq2k6pzldrhwn1bzq0m82z&#45;krb5&#45;1.21.3&#45;lib&#45;&gt;zl7h70n70g5m57iw5pa8gqkxz6y0zfcf&#45;curl&#45;8.12.1&#45;bin -->
<g id="edge23" class="edge">
<title>wp9hkfl23miq2k6pzldrhwn1bzq0m82z&#45;krb5&#45;1.21.3&#45;lib&#45;&gt;zl7h70n70g5m57iw5pa8gqkxz6y0zfcf&#45;curl&#45;8.12.1&#45;bin</title>
<path fill="none" stroke="magenta" d="M1072.32,-215.73C1062.82,-195.06 1043.94,-161.09 1016.45,-144 972,-116.36 827.14,-101.47 743.86,-95.01"/>
<polygon fill="magenta" stroke="magenta" points="744.28,-91.53 734.04,-94.27 743.75,-98.51 744.28,-91.53"/>
</g>
<!-- wp9hkfl23miq2k6pzldrhwn1bzq0m82z&#45;krb5&#45;1.21.3&#45;lib&#45;&gt;iq39chy7l7zr63ip7dkyf233c6hjaqig&#45;curl&#45;8.12.1 -->
<g id="edge43" class="edge">
<title>wp9hkfl23miq2k6pzldrhwn1bzq0m82z&#45;krb5&#45;1.21.3&#45;lib&#45;&gt;iq39chy7l7zr63ip7dkyf233c6hjaqig&#45;curl&#45;8.12.1</title>
<path fill="none" stroke="black" d="M1029.89,-224.59C1013.52,-221.83 995.21,-218.76 978.45,-216 879.66,-199.7 764.04,-181.14 699.84,-170.88"/>
<polygon fill="black" stroke="black" points="700.76,-167.48 690.34,-169.36 699.66,-174.39 700.76,-167.48"/>
</g>
<!-- y8f0y8lavw4zh4g6k36pjkny3flj9ybn&#45;zstd&#45;1.5.6&#45;&gt;zl7h70n70g5m57iw5pa8gqkxz6y0zfcf&#45;curl&#45;8.12.1&#45;bin -->
<g id="edge24" class="edge">
<title>y8f0y8lavw4zh4g6k36pjkny3flj9ybn&#45;zstd&#45;1.5.6&#45;&gt;zl7h70n70g5m57iw5pa8gqkxz6y0zfcf&#45;curl&#45;8.12.1&#45;bin</title>
<path fill="none" stroke="burlywood" d="M710.74,-215.52C707.84,-197.52 702.92,-168.68 697.45,-144 695.65,-135.88 693.45,-127.14 691.33,-119.13"/>
<polygon fill="burlywood" stroke="burlywood" points="694.73,-118.3 688.74,-109.56 687.98,-120.13 694.73,-118.3"/>
</g>
<!-- y8f0y8lavw4zh4g6k36pjkny3flj9ybn&#45;zstd&#45;1.5.6&#45;&gt;iq39chy7l7zr63ip7dkyf233c6hjaqig&#45;curl&#45;8.12.1 -->
<g id="edge44" class="edge">
<title>y8f0y8lavw4zh4g6k36pjkny3flj9ybn&#45;zstd&#45;1.5.6&#45;&gt;iq39chy7l7zr63ip7dkyf233c6hjaqig&#45;curl&#45;8.12.1</title>
<path fill="none" stroke="red" d="M697.88,-215.7C690.48,-207.47 681.49,-197.48 673.33,-188.42"/>
<polygon fill="red" stroke="red" points="676.15,-186.32 666.86,-181.23 670.95,-191 676.15,-186.32"/>
</g>
<!-- 1szdfsbm4vbpcanrm2xssf7s97hiw8ca&#45;publicsuffix&#45;list&#45;0&#45;unstable&#45;2024&#45;10&#45;25 -->
<g id="node20" class="node">
<title>1szdfsbm4vbpcanrm2xssf7s97hiw8ca&#45;publicsuffix&#45;list&#45;0&#45;unstable&#45;2024&#45;10&#45;25</title>
<polygon fill="#ff0000" stroke="black" points="260.7,-396 30.2,-396 30.2,-360 260.7,-360 260.7,-396"/>
<text text-anchor="middle" x="145.45" y="-372.95" font-family="Times,serif" font-size="14.00">publicsuffix&#45;list&#45;0&#45;unstable&#45;2024&#45;10&#45;25</text>
</g>
<!-- 1szdfsbm4vbpcanrm2xssf7s97hiw8ca&#45;publicsuffix&#45;list&#45;0&#45;unstable&#45;2024&#45;10&#45;25&#45;&gt;1mlp55hh4avb3k1bg7x8d5jha299qmxj&#45;libpsl&#45;0.21.5 -->
<g id="edge25" class="edge">
<title>1szdfsbm4vbpcanrm2xssf7s97hiw8ca&#45;publicsuffix&#45;list&#45;0&#45;unstable&#45;2024&#45;10&#45;25&#45;&gt;1mlp55hh4avb3k1bg7x8d5jha299qmxj&#45;libpsl&#45;0.21.5</title>
<path fill="none" stroke="black" d="M172.18,-359.52C185.68,-350.68 202.26,-339.84 216.83,-330.3"/>
<polygon fill="black" stroke="black" points="218.35,-333.49 224.8,-325.09 214.52,-327.63 218.35,-333.49"/>
</g>
<!-- 960xn2h7rwx5mna68s002mcwbx7yhbk9&#45;keyutils&#45;1.6.3&#45;lib&#45;&gt;wp9hkfl23miq2k6pzldrhwn1bzq0m82z&#45;krb5&#45;1.21.3&#45;lib -->
<g id="edge47" class="edge">
<title>960xn2h7rwx5mna68s002mcwbx7yhbk9&#45;keyutils&#45;1.6.3&#45;lib&#45;&gt;wp9hkfl23miq2k6pzldrhwn1bzq0m82z&#45;krb5&#45;1.21.3&#45;lib</title>
<path fill="none" stroke="magenta" d="M1020.73,-287.7C1030.11,-279.28 1041.55,-269.02 1051.83,-259.79"/>
<polygon fill="magenta" stroke="magenta" points="1053.89,-262.64 1059,-253.36 1049.22,-257.43 1053.89,-262.64"/>
</g>
<!-- w47x7y9xjgq7n3171ckg722ddwf2pi3v&#45;gcc&#45;13.3.0&#45;lib&#45;&gt;y8f0y8lavw4zh4g6k36pjkny3flj9ybn&#45;zstd&#45;1.5.6 -->
<g id="edge52" class="edge">
<title>w47x7y9xjgq7n3171ckg722ddwf2pi3v&#45;gcc&#45;13.3.0&#45;lib&#45;&gt;y8f0y8lavw4zh4g6k36pjkny3flj9ybn&#45;zstd&#45;1.5.6</title>
<path fill="none" stroke="blue" d="M547.2,-289.64C582.93,-277.89 631.94,-261.79 667.48,-250.11"/>
<polygon fill="blue" stroke="blue" points="668.2,-253.55 676.61,-247.11 666.02,-246.9 668.2,-253.55"/>
</g>
<!-- bdsrlavadkx74k9ps4add4g67y569y1r&#45;gcc&#45;13.3.0&#45;libgcc -->
<g id="node23" class="node">
<title>bdsrlavadkx74k9ps4add4g67y569y1r&#45;gcc&#45;13.3.0&#45;libgcc</title>
<polygon fill="#ff0000" stroke="black" points="556.08,-396 444.83,-396 444.83,-360 556.08,-360 556.08,-396"/>
<text text-anchor="middle" x="500.45" y="-372.95" font-family="Times,serif" font-size="14.00">gcc&#45;13.3.0&#45;libgcc</text>
</g>
<!-- bdsrlavadkx74k9ps4add4g67y569y1r&#45;gcc&#45;13.3.0&#45;libgcc&#45;&gt;w47x7y9xjgq7n3171ckg722ddwf2pi3v&#45;gcc&#45;13.3.0&#45;lib -->
<g id="edge53" class="edge">
<title>bdsrlavadkx74k9ps4add4g67y569y1r&#45;gcc&#45;13.3.0&#45;libgcc&#45;&gt;w47x7y9xjgq7n3171ckg722ddwf2pi3v&#45;gcc&#45;13.3.0&#45;lib</title>
<path fill="none" stroke="magenta" d="M500.45,-359.7C500.45,-352.41 500.45,-343.73 500.45,-335.54"/>
<polygon fill="magenta" stroke="magenta" points="503.95,-335.62 500.45,-325.62 496.95,-335.62 503.95,-335.62"/>
</g>
</g>
</svg>
