<svg xmlns="http://www.w3.org/2000/svg" width="804" height="240" class="svgbob">
  <style>.svgbob line, .svgbob path, .svgbob circle, .svgbob rect, .svgbob polygon {
  stroke: #0047AB;
  stroke-width: 2;
  stroke-opacity: 1;
  fill-opacity: 1;
  stroke-linecap: round;
  stroke-linejoin: miter;
}

.svgbob text {
  white-space: pre;
  fill: #0047AB;
  font-family: "Fira Mono";
  font-size: 20px;
}

.svgbob rect.backdrop {
  stroke: none;
  fill: white;
}

.svgbob .broken {
  stroke-dasharray: 8;
}

.svgbob .filled {
  fill: #0047AB;
}

.svgbob .bg_filled {
  fill: white;
  stroke-width: 1;
}

.svgbob .nofill {
  fill: white;
}

.svgbob .end_marked_arrow {
  marker-end: url(#arrow);
}

.svgbob .start_marked_arrow {
  marker-start: url(#arrow);
}

.svgbob .end_marked_diamond {
  marker-end: url(#diamond);
}

.svgbob .start_marked_diamond {
  marker-start: url(#diamond);
}

.svgbob .end_marked_circle {
  marker-end: url(#circle);
}

.svgbob .start_marked_circle {
  marker-start: url(#circle);
}

.svgbob .end_marked_open_circle {
  marker-end: url(#open_circle);
}

.svgbob .start_marked_open_circle {
  marker-start: url(#open_circle);
}

.svgbob .end_marked_big_open_circle {
  marker-end: url(#big_open_circle);
}

.svgbob .start_marked_big_open_circle {
  marker-start: url(#big_open_circle);
}

</style>
  <defs>
    <marker id="arrow" viewBox="-2 -2 8 8" refX="4" refY="2" markerWidth="7" markerHeight="7" orient="auto-start-reverse">
      <polygon points="0,0 0,4 4,2 0,0"></polygon>
    </marker>
    <marker id="diamond" viewBox="-2 -2 8 8" refX="4" refY="2" markerWidth="7" markerHeight="7" orient="auto-start-reverse">
      <polygon points="0,2 2,0 4,2 2,4 0,2"></polygon>
    </marker>
    <marker id="circle" viewBox="0 0 8 8" refX="4" refY="4" markerWidth="7" markerHeight="7" orient="auto-start-reverse">
      <circle cx="4" cy="4" r="2" class="filled"></circle>
    </marker>
    <marker id="open_circle" viewBox="0 0 8 8" refX="4" refY="4" markerWidth="7" markerHeight="7" orient="auto-start-reverse">
      <circle cx="4" cy="4" r="2" class="bg_filled"></circle>
    </marker>
    <marker id="big_open_circle" viewBox="0 0 8 8" refX="4" refY="4" markerWidth="7" markerHeight="7" orient="auto-start-reverse">
      <circle cx="4" cy="4" r="3" class="bg_filled"></circle>
    </marker>
  </defs>
  <rect class="backdrop" x="0" y="0" width="804" height="240"></rect>
  <text x="15" y="18" >Stack</text>
  <text x="423" y="18" >Heap</text>
  <line x1="48" y1="36" x2="60" y2="36" class="solid"></line>
  <line x1="72" y1="36" x2="84" y2="36" class="solid"></line>
  <line x1="432" y1="36" x2="444" y2="36" class="solid"></line>
  <line x1="456" y1="36" x2="468" y2="36" class="solid"></line>
  <text x="39" y="66" >a</text>
  <text x="63" y="114" >capacity</text>
  <text x="255" y="114" >5</text>
  <text x="63" y="138" >ptr</text>
  <line x1="276" y1="132" x2="258" y2="132" class="solid end_marked_open_circle"></line>
  <line x1="276" y1="132" x2="432" y2="132" class="solid"></line>
  <polygon points="432,126 444,132 432,138" class="filled"></polygon>
  <text x="471" y="138" >H</text>
  <text x="531" y="138" >e</text>
  <text x="591" y="138" >l</text>
  <text x="651" y="138" >l</text>
  <text x="711" y="138" >o</text>
  <text x="63" y="162" >len</text>
  <text x="255" y="162" >5</text>
  <line x1="48" y1="204" x2="60" y2="204" class="solid"></line>
  <line x1="72" y1="204" x2="84" y2="204" class="solid"></line>
  <line x1="96" y1="204" x2="108" y2="204" class="solid"></line>
  <line x1="120" y1="204" x2="132" y2="204" class="solid"></line>
  <line x1="144" y1="204" x2="156" y2="204" class="solid"></line>
  <line x1="168" y1="204" x2="180" y2="204" class="solid"></line>
  <line x1="192" y1="204" x2="204" y2="204" class="solid"></line>
  <line x1="216" y1="204" x2="228" y2="204" class="solid"></line>
  <line x1="240" y1="204" x2="252" y2="204" class="solid"></line>
  <line x1="264" y1="204" x2="276" y2="204" class="solid"></line>
  <line x1="288" y1="204" x2="300" y2="204" class="solid"></line>
  <line x1="96" y1="36" x2="108" y2="36" class="solid"></line>
  <line x1="120" y1="36" x2="132" y2="36" class="solid"></line>
  <line x1="144" y1="36" x2="156" y2="36" class="solid"></line>
  <line x1="168" y1="36" x2="180" y2="36" class="solid"></line>
  <line x1="192" y1="36" x2="204" y2="36" class="solid"></line>
  <line x1="216" y1="36" x2="228" y2="36" class="solid"></line>
  <line x1="240" y1="36" x2="252" y2="36" class="solid"></line>
  <line x1="264" y1="36" x2="276" y2="36" class="solid"></line>
  <line x1="288" y1="36" x2="300" y2="36" class="solid"></line>
  <line x1="480" y1="36" x2="492" y2="36" class="solid"></line>
  <line x1="504" y1="36" x2="516" y2="36" class="solid"></line>
  <line x1="528" y1="36" x2="540" y2="36" class="solid"></line>
  <line x1="552" y1="36" x2="564" y2="36" class="solid"></line>
  <line x1="576" y1="36" x2="588" y2="36" class="solid"></line>
  <line x1="600" y1="36" x2="612" y2="36" class="solid"></line>
  <line x1="624" y1="36" x2="636" y2="36" class="solid"></line>
  <line x1="648" y1="36" x2="660" y2="36" class="solid"></line>
  <line x1="672" y1="36" x2="684" y2="36" class="solid"></line>
  <line x1="696" y1="36" x2="708" y2="36" class="solid"></line>
  <line x1="720" y1="36" x2="732" y2="36" class="solid"></line>
  <line x1="744" y1="36" x2="756" y2="36" class="solid"></line>
  <line x1="432" y1="204" x2="444" y2="204" class="solid"></line>
  <line x1="456" y1="204" x2="468" y2="204" class="solid"></line>
  <line x1="480" y1="204" x2="492" y2="204" class="solid"></line>
  <line x1="504" y1="204" x2="516" y2="204" class="solid"></line>
  <line x1="528" y1="204" x2="540" y2="204" class="solid"></line>
  <line x1="552" y1="204" x2="564" y2="204" class="solid"></line>
  <line x1="576" y1="204" x2="588" y2="204" class="solid"></line>
  <line x1="600" y1="204" x2="612" y2="204" class="solid"></line>
  <line x1="624" y1="204" x2="636" y2="204" class="solid"></line>
  <line x1="648" y1="204" x2="660" y2="204" class="solid"></line>
  <line x1="672" y1="204" x2="684" y2="204" class="solid"></line>
  <line x1="696" y1="204" x2="708" y2="204" class="solid"></line>
  <line x1="720" y1="204" x2="732" y2="204" class="solid"></line>
  <line x1="744" y1="204" x2="756" y2="204" class="solid"></line>
  <g>
    <path d="M 12,36 A 6,6 0,0,0 6,42" class="nofill"></path>
    <line x1="6" y1="42" x2="6" y2="198" class="broken"></line>
    <line x1="12" y1="36" x2="36" y2="36" class="solid"></line>
    <path d="M 6,198 A 6,6 0,0,0 12,204" class="nofill"></path>
    <line x1="12" y1="204" x2="36" y2="204" class="solid"></line>
  </g>
  <g>
    <line x1="312" y1="36" x2="324" y2="36" class="solid"></line>
    <path d="M 324,36 A 6,6 0,0,1 330,42" class="nofill"></path>
    <line x1="330" y1="42" x2="330" y2="198" class="broken"></line>
    <line x1="312" y1="204" x2="324" y2="204" class="solid"></line>
    <path d="M 330,198 A 6,6 0,0,1 324,204" class="nofill"></path>
  </g>
  <g>
    <path d="M 408,36 A 6,6 0,0,0 402,42" class="nofill"></path>
    <line x1="402" y1="42" x2="402" y2="198" class="broken"></line>
    <line x1="408" y1="36" x2="420" y2="36" class="solid"></line>
    <path d="M 402,198 A 6,6 0,0,0 408,204" class="nofill"></path>
    <line x1="408" y1="204" x2="420" y2="204" class="solid"></line>
  </g>
  <g>
    <line x1="42" y1="84" x2="282" y2="84" class="solid"></line>
    <line x1="42" y1="84" x2="42" y2="180" class="solid"></line>
    <line x1="186" y1="84" x2="186" y2="180" class="solid"></line>
    <line x1="282" y1="84" x2="282" y2="180" class="solid"></line>
    <line x1="42" y1="180" x2="282" y2="180" class="solid"></line>
  </g>
  <g>
    <line x1="450" y1="108" x2="750" y2="108" class="solid"></line>
    <line x1="450" y1="108" x2="450" y2="156" class="solid"></line>
    <line x1="510" y1="108" x2="510" y2="156" class="solid"></line>
    <line x1="570" y1="108" x2="570" y2="156" class="solid"></line>
    <line x1="630" y1="108" x2="630" y2="156" class="solid"></line>
    <line x1="690" y1="108" x2="690" y2="156" class="solid"></line>
    <line x1="750" y1="108" x2="750" y2="156" class="solid"></line>
    <line x1="450" y1="156" x2="750" y2="156" class="solid"></line>
  </g>
  <g>
    <line x1="768" y1="36" x2="780" y2="36" class="solid"></line>
    <path d="M 780,36 A 6,6 0,0,1 786,42" class="nofill"></path>
    <line x1="786" y1="42" x2="786" y2="198" class="broken"></line>
    <line x1="768" y1="204" x2="780" y2="204" class="solid"></line>
    <path d="M 786,198 A 6,6 0,0,1 780,204" class="nofill"></path>
  </g>
</svg>