<svg xmlns="http://www.w3.org/2000/svg" width="816" height="528" class="svgbob">
  <style>.svgbob line, .svgbob path, .svgbob circle, .svgbob rect, .svgbob polygon {
  stroke: #0047AB;
  stroke-width: 2;
  stroke-opacity: 1;
  fill-opacity: 1;
  stroke-linecap: round;
  stroke-linejoin: miter;
}

.svgbob text {
  white-space: pre;
  fill: #0047AB;
  font-family: "Fira Mono";
  font-size: 20px;
}

.svgbob rect.backdrop {
  stroke: none;
  fill: white;
}

.svgbob .broken {
  stroke-dasharray: 8;
}

.svgbob .filled {
  fill: #0047AB;
}

.svgbob .bg_filled {
  fill: white;
  stroke-width: 1;
}

.svgbob .nofill {
  fill: white;
}

.svgbob .end_marked_arrow {
  marker-end: url(#arrow);
}

.svgbob .start_marked_arrow {
  marker-start: url(#arrow);
}

.svgbob .end_marked_diamond {
  marker-end: url(#diamond);
}

.svgbob .start_marked_diamond {
  marker-start: url(#diamond);
}

.svgbob .end_marked_circle {
  marker-end: url(#circle);
}

.svgbob .start_marked_circle {
  marker-start: url(#circle);
}

.svgbob .end_marked_open_circle {
  marker-end: url(#open_circle);
}

.svgbob .start_marked_open_circle {
  marker-start: url(#open_circle);
}

.svgbob .end_marked_big_open_circle {
  marker-end: url(#big_open_circle);
}

.svgbob .start_marked_big_open_circle {
  marker-start: url(#big_open_circle);
}

</style>
  <defs>
    <marker id="arrow" viewBox="-2 -2 8 8" refX="4" refY="2" markerWidth="7" markerHeight="7" orient="auto-start-reverse">
      <polygon points="0,0 0,4 4,2 0,0"></polygon>
    </marker>
    <marker id="diamond" viewBox="-2 -2 8 8" refX="4" refY="2" markerWidth="7" markerHeight="7" orient="auto-start-reverse">
      <polygon points="0,2 2,0 4,2 2,4 0,2"></polygon>
    </marker>
    <marker id="circle" viewBox="0 0 8 8" refX="4" refY="4" markerWidth="7" markerHeight="7" orient="auto-start-reverse">
      <circle cx="4" cy="4" r="2" class="filled"></circle>
    </marker>
    <marker id="open_circle" viewBox="0 0 8 8" refX="4" refY="4" markerWidth="7" markerHeight="7" orient="auto-start-reverse">
      <circle cx="4" cy="4" r="2" class="bg_filled"></circle>
    </marker>
    <marker id="big_open_circle" viewBox="0 0 8 8" refX="4" refY="4" markerWidth="7" markerHeight="7" orient="auto-start-reverse">
      <circle cx="4" cy="4" r="3" class="bg_filled"></circle>
    </marker>
  </defs>
  <rect class="backdrop" x="0" y="0" width="816" height="528"></rect>
  <text x="171" y="18" >Stack</text>
  <line x1="306" y1="0" x2="306" y2="504" class="broken"></line>
  <text x="147" y="90" >data</text>
  <line x1="204" y1="84" x2="348" y2="84" class="solid"></line>
  <polygon points="348,78 360,84 348,90" class="filled"></polygon>
  <text x="147" y="138" >capacity</text>
  <line x1="282" y1="132" x2="330" y2="132" class="solid end_marked_circle"></line>
  <line x1="324" y1="132" x2="348" y2="132" class="solid"></line>
  <line x1="330" y1="138" x2="330" y2="252" class="solid end_marked_open_circle"></line>
  <polygon points="348,126 360,132 348,138" class="filled"></polygon>
  <text x="147" y="186" >len</text>
  <text x="387" y="282" >...</text>
  <line x1="372" y1="345" x2="552" y2="345" class="solid"></line>
  <line x1="372" y1="351" x2="552" y2="351" class="solid"></line>
  <text x="147" y="402" >data</text>
  <text x="507" y="426" >...</text>
  <text x="435" y="18" >Heap</text>
  <line x1="90" y1="66" x2="90" y2="60" class="solid end_marked_circle"></line>
  <line x1="90" y1="72" x2="90" y2="204" class="solid end_marked_open_circle"></line>
  <line x1="582" y1="66" x2="582" y2="60" class="solid end_marked_circle"></line>
  <line x1="582" y1="72" x2="582" y2="348" class="solid end_marked_open_circle"></line>
  <line x1="582" y1="354" x2="582" y2="492" class="solid end_marked_open_circle"></line>
  <text x="603" y="66" >Contiguous</text>
  <text x="735" y="66" >Memory</text>
  <text x="3" y="138" >Vec&lt;T&gt;</text>
  <text x="615" y="162" >Elements</text>
  <line x1="90" y1="378" x2="90" y2="372" class="solid end_marked_circle"></line>
  <line x1="90" y1="384" x2="90" y2="468" class="solid end_marked_open_circle"></line>
  <text x="3" y="426" >Slice</text>
  <text x="3" y="450" >&amp;[T]</text>
  <text x="615" y="426" >Free</text>
  <text x="675" y="426" >Capacity</text>
  <text x="387" y="90" >element-1</text>
  <text x="387" y="138" >element-2</text>
  <text x="387" y="186" >element-3</text>
  <text x="387" y="234" >element-4</text>
  <text x="387" y="330" >element-n</text>
  <text x="447" y="378" >cap-n+1</text>
  <text x="147" y="450" >len=3</text>
  <text x="471" y="474" >cap-m</text>
  <g>
    <path d="M 132,60 A 6,6 0,0,0 126,66" class="nofill"></path>
    <line x1="126" y1="66" x2="126" y2="198" class="solid"></line>
    <line x1="132" y1="60" x2="252" y2="60" class="solid"></line>
    <path d="M 252,60 A 6,6 0,0,1 258,66" class="nofill"></path>
    <line x1="258" y1="66" x2="258" y2="198" class="solid"></line>
    <line x1="126" y1="108" x2="258" y2="108" class="solid"></line>
    <line x1="126" y1="156" x2="258" y2="156" class="solid"></line>
    <path d="M 126,198 A 6,6 0,0,0 132,204" class="nofill"></path>
    <line x1="132" y1="204" x2="252" y2="204" class="solid"></line>
    <path d="M 258,198 A 6,6 0,0,1 252,204" class="nofill"></path>
  </g>
  <g>
    <path d="M 372,60 A 6,6 0,0,0 366,66" class="nofill"></path>
    <line x1="366" y1="66" x2="366" y2="486" class="solid"></line>
    <line x1="372" y1="60" x2="552" y2="60" class="solid"></line>
    <path d="M 552,60 A 6,6 0,0,1 558,66" class="nofill"></path>
    <line x1="558" y1="66" x2="558" y2="486" class="solid"></line>
    <line x1="366" y1="108" x2="558" y2="108" class="solid"></line>
    <line x1="366" y1="156" x2="558" y2="156" class="solid"></line>
    <line x1="366" y1="204" x2="558" y2="204" class="solid"></line>
    <line x1="366" y1="252" x2="558" y2="252" class="solid"></line>
    <line x1="366" y1="300" x2="558" y2="300" class="solid"></line>
    <line x1="366" y1="396" x2="558" y2="396" class="solid"></line>
    <line x1="366" y1="444" x2="558" y2="444" class="solid"></line>
    <path d="M 366,486 A 6,6 0,0,0 372,492" class="nofill"></path>
    <line x1="372" y1="492" x2="552" y2="492" class="solid"></line>
    <path d="M 558,486 A 6,6 0,0,1 552,492" class="nofill"></path>
  </g>
  <g>
    <line x1="282" y1="132" x2="282" y2="396" class="solid"></line>
    <line x1="204" y1="396" x2="282" y2="396" class="solid"></line>
  </g>
  <g>
    <path d="M 132,372 A 6,6 0,0,0 126,378" class="nofill"></path>
    <line x1="126" y1="378" x2="126" y2="462" class="solid"></line>
    <line x1="132" y1="372" x2="252" y2="372" class="solid"></line>
    <path d="M 252,372 A 6,6 0,0,1 258,378" class="nofill"></path>
    <line x1="258" y1="378" x2="258" y2="462" class="solid"></line>
    <line x1="126" y1="420" x2="258" y2="420" class="solid"></line>
    <path d="M 126,462 A 6,6 0,0,0 132,468" class="nofill"></path>
    <line x1="132" y1="468" x2="252" y2="468" class="solid"></line>
    <path d="M 258,462 A 6,6 0,0,1 252,468" class="nofill"></path>
  </g>
</svg>