<svg xmlns="http://www.w3.org/2000/svg" width="636" height="216" class="svgbob">
  <style>.svgbob line, .svgbob path, .svgbob circle, .svgbob rect, .svgbob polygon {
  stroke: #0047AB;
  stroke-width: 2;
  stroke-opacity: 1;
  fill-opacity: 1;
  stroke-linecap: round;
  stroke-linejoin: miter;
}

.svgbob text {
  white-space: pre;
  fill: #0047AB;
  font-family: "JetbrainsMono NFM";
  font-size: 20px;
}

.svgbob rect.backdrop {
  stroke: none;
  fill: white;
}

.svgbob .broken {
  stroke-dasharray: 8;
}

.svgbob .filled {
  fill: #0047AB;
}

.svgbob .bg_filled {
  fill: white;
  stroke-width: 1;
}

.svgbob .nofill {
  fill: white;
}

.svgbob .end_marked_arrow {
  marker-end: url(#arrow);
}

.svgbob .start_marked_arrow {
  marker-start: url(#arrow);
}

.svgbob .end_marked_diamond {
  marker-end: url(#diamond);
}

.svgbob .start_marked_diamond {
  marker-start: url(#diamond);
}

.svgbob .end_marked_circle {
  marker-end: url(#circle);
}

.svgbob .start_marked_circle {
  marker-start: url(#circle);
}

.svgbob .end_marked_open_circle {
  marker-end: url(#open_circle);
}

.svgbob .start_marked_open_circle {
  marker-start: url(#open_circle);
}

.svgbob .end_marked_big_open_circle {
  marker-end: url(#big_open_circle);
}

.svgbob .start_marked_big_open_circle {
  marker-start: url(#big_open_circle);
}

</style>
  <defs>
    <marker id="arrow" viewBox="-2 -2 8 8" refX="4" refY="2" markerWidth="7" markerHeight="7" orient="auto-start-reverse">
      <polygon points="0,0 0,4 4,2 0,0"></polygon>
    </marker>
    <marker id="diamond" viewBox="-2 -2 8 8" refX="4" refY="2" markerWidth="7" markerHeight="7" orient="auto-start-reverse">
      <polygon points="0,2 2,0 4,2 2,4 0,2"></polygon>
    </marker>
    <marker id="circle" viewBox="0 0 8 8" refX="4" refY="4" markerWidth="7" markerHeight="7" orient="auto-start-reverse">
      <circle cx="4" cy="4" r="2" class="filled"></circle>
    </marker>
    <marker id="open_circle" viewBox="0 0 8 8" refX="4" refY="4" markerWidth="7" markerHeight="7" orient="auto-start-reverse">
      <circle cx="4" cy="4" r="2" class="bg_filled"></circle>
    </marker>
    <marker id="big_open_circle" viewBox="0 0 8 8" refX="4" refY="4" markerWidth="7" markerHeight="7" orient="auto-start-reverse">
      <circle cx="4" cy="4" r="3" class="bg_filled"></circle>
    </marker>
  </defs>
  <rect class="backdrop" x="0" y="0" width="636" height="216"></rect>
  <text x="195" y="18" >Stack</text>
  <line x1="330" y1="0" x2="330" y2="48" class="broken"></line>
  <text x="471" y="18" >Heap</text>
  <text x="207" y="66" >ptr</text>
  <polygon points="360,54 372,60 360,66" class="filled"></polygon>
  <text x="411" y="66" >data:</text>
  <text x="483" y="66" >T</text>
  <line x1="330" y1="72" x2="330" y2="192" class="broken"></line>
  <text x="207" y="162" >ptr</text>
  <line x1="138" y1="42" x2="138" y2="36" class="solid end_marked_circle"></line>
  <line x1="138" y1="48" x2="138" y2="84" class="solid end_marked_open_circle"></line>
  <text x="3" y="66" >a1:</text>
  <text x="51" y="66" >Arc&lt;T&gt;</text>
  <line x1="138" y1="138" x2="138" y2="132" class="solid end_marked_circle"></line>
  <line x1="138" y1="144" x2="138" y2="180" class="solid end_marked_open_circle"></line>
  <text x="3" y="162" >a2:</text>
  <text x="51" y="162" >Arc&lt;T&gt;</text>
  <text x="399" y="114" >strong-count: 2</text>
  <text x="399" y="138" >weak-count: 0</text>
  <g>
    <path d="M 180,36 A 6,6 0,0,0 174,42" class="nofill"></path>
    <line x1="174" y1="42" x2="174" y2="78" class="solid"></line>
    <line x1="180" y1="36" x2="264" y2="36" class="solid"></line>
    <path d="M 264,36 A 6,6 0,0,1 270,42" class="nofill"></path>
    <line x1="270" y1="42" x2="270" y2="78" class="solid"></line>
    <line x1="270" y1="60" x2="360" y2="60" class="solid"></line>
    <line x1="294" y1="60" x2="294" y2="156" class="solid"></line>
    <path d="M 174,78 A 6,6 0,0,0 180,84" class="nofill"></path>
    <line x1="180" y1="84" x2="264" y2="84" class="solid"></line>
    <path d="M 270,78 A 6,6 0,0,1 264,84" class="nofill"></path>
    <path d="M 180,132 A 6,6 0,0,0 174,138" class="nofill"></path>
    <line x1="174" y1="138" x2="174" y2="174" class="solid"></line>
    <line x1="180" y1="132" x2="264" y2="132" class="solid"></line>
    <path d="M 264,132 A 6,6 0,0,1 270,138" class="nofill"></path>
    <line x1="270" y1="138" x2="270" y2="174" class="solid"></line>
    <line x1="270" y1="156" x2="294" y2="156" class="solid"></line>
    <path d="M 174,174 A 6,6 0,0,0 180,180" class="nofill"></path>
    <line x1="180" y1="180" x2="264" y2="180" class="solid"></line>
    <path d="M 270,174 A 6,6 0,0,1 264,180" class="nofill"></path>
  </g>
  <g>
    <path d="M 384,36 A 6,6 0,0,0 378,42" class="nofill"></path>
    <line x1="378" y1="42" x2="378" y2="150" class="solid"></line>
    <line x1="384" y1="36" x2="612" y2="36" class="solid"></line>
    <path d="M 612,36 A 6,6 0,0,1 618,42" class="nofill"></path>
    <line x1="618" y1="42" x2="618" y2="150" class="solid"></line>
    <line x1="378" y1="84" x2="618" y2="84" class="solid"></line>
    <path d="M 378,150 A 6,6 0,0,0 384,156" class="nofill"></path>
    <line x1="384" y1="156" x2="612" y2="156" class="solid"></line>
    <path d="M 618,150 A 6,6 0,0,1 612,156" class="nofill"></path>
  </g>
</svg>