<?xml version="1.0" encoding="UTF-8" standalone="no"?>
<svg
   width="62"
   height="55.088493"
   viewBox="0 0 61.999999 55.088493"
   fill="none"
   version="1.1"
   id="svg12"
   sodipodi:docname="logo.svg"
   inkscape:version="1.3 (1:1.3+202307231459+0e150ed6c4)"
   xmlns:inkscape="http://www.inkscape.org/namespaces/inkscape"
   xmlns:sodipodi="http://sodipodi.sourceforge.net/DTD/sodipodi-0.dtd"
   xmlns="http://www.w3.org/2000/svg"
   xmlns:svg="http://www.w3.org/2000/svg">
  <defs
     id="defs12" />
  <sodipodi:namedview
     id="namedview12"
     pagecolor="#ffffff"
     bordercolor="#666666"
     borderopacity="1.0"
     inkscape:showpageshadow="2"
     inkscape:pageopacity="0.0"
     inkscape:pagecheckerboard="0"
     inkscape:deskcolor="#d1d1d1"
     inkscape:zoom="7.1421053"
     inkscape:cx="85.549005"
     inkscape:cy="45.574797"
     inkscape:window-width="1920"
     inkscape:window-height="1043"
     inkscape:window-x="0"
     inkscape:window-y="0"
     inkscape:window-maximized="1"
     inkscape:current-layer="svg12" />
  <path
     fill-rule="evenodd"
     clip-rule="evenodd"
     d="M 59,42.128737 V 13.682636 L 12,3.2807856 V 51.859537 Z m 1.4055,2.7727 C 61.3341,44.709137 62,43.891237 62,42.942937 V 12.879736 c 0,-0.938 -0.6519,-1.75 -1.5678,-1.9527 l -49,-10.84451143 C 10.1836,-0.19380543 9,0.75648557 9,2.0352756 l -10e-6,51.0524614 c 0,1.2676 1.16421,2.2155 2.40551,1.9585 z"
     fill="#D53F8C"
     id="path1"
     style="fill:#3f96d5;fill-opacity:1" />
  <path
     d="m 0,12.145536 c 0,-0.9483 0.665933,-1.7662 1.59452,-1.9585 L 50.5945,0.04225457 C 51.8358,-0.21473743 53,0.73310557 53,2.0007256 V 53.053237 c 0,1.2788 -1.1836,2.229 -2.4322,1.9527 L 1.56783,44.161537 C 0.651943,43.958837 0,43.146737 0,42.208737 Z"
     fill="#f2e142"
     id="path2" />
  <path
     d="M 12,2.5735556 V 52.569437 H 9.00001 V 2.5735556 Z"
     fill="#D53F8C"
     id="path3"
     style="fill:#3f96d5;fill-opacity:1" />
</svg>
